<svg id="Layer_1" data-name="Layer 1" xmlns="http://www.w3.org/2000/svg" viewBox="0 0 400 300" width="406" height="306" class="illustration styles_illustrationTablet__1DWOa"><title>#83_coworking_twocolour</title><path d="M176.48,132.88S199,135.94,197,168.81H178.26Z" fill="#210A54"></path><path d="M178.26,168.81l-1.78-35.93S199,135.94,197,168.81" fill="#fff" opacity="0.46"></path><path d="M209.67,141.18s1.45,26.62-11.85,30.68,22.46,9.29,22.46,9.29L229,154.43Z" fill="#f4a28c"></path><path d="M228,73.09s.67,6.4,2.53,10.39A3.24,3.24,0,0,0,234.87,85a7.16,7.16,0,0,0,4.48-6.34l.82-5.89a5.76,5.76,0,0,0-3.66-5.58C232.45,65.34,227.42,69.2,228,73.09Z" fill="#f4a28c"></path><polygon points="241.5 76.08 245.69 96.77 234.12 98.27 235.68 83.01 241.5 76.08" fill="#f4a28c"></polygon><path d="M252.08,95.57a31.91,31.91,0,0,1,22.12,4.53c7.56,4.9,14.56,14.14,12.3,31.45-4.52,34.63-17.9,55.54-17.9,55.54L221.35,191s-1.18-22.73-9-35.42-18-46,21.74-57.33Z" fill="#210A54"></path><path d="M228.65,77.1l-1.29,2.78a1,1,0,0,0,.93,1.47h2.51Z" fill="#f4a28c"></path><path d="M235.63,83.44a7.85,7.85,0,0,0,3.54-2.29s1.33,4.43-4,6.66Z" fill="#ce8172" opacity="0.31"></path><path d="M236.12,76.19s-.42-2.45,1.45-2.61,2.49,3.36.07,4.17Z" fill="#f4a28c"></path><path d="M229.29,72.54a18.7,18.7,0,0,0,6.15-.72s2.11,7,7.95,8.11c0,0,4.14-11.22-2.88-14.59-5.89-2.82-10.32-5.41-14.38-.8A4.83,4.83,0,0,0,229.29,72.54Z" fill="#24285b"></path><circle cx="243.81" cy="61.9" r="6.41" fill="#24285b"></circle><path d="M228.07,100.31s-.35-4.24,6-6.27,15.8-6.92,18.06,1.53Z" fill="#210A54"></path><path d="M228.07,100.31s-.35-4.24,6-6.27,15.8-6.92,18.06,1.53Z" fill="#fff" opacity="0.46"></path><path d="M235.75,75.57s0-2.87,2.28-2.69,2.67,3.52,0,5.16Z" fill="#f4a28c"></path><polygon points="131.53 47.76 131.53 67.76 144.45 67.76 147.28 75.72 150.62 67.76 163.54 67.76 163.54 47.76 131.53 47.76" fill="#e6e6e6"></polygon><path d="M145.92,62.22h0a1,1,0,0,1-.75-.39l-3.38-4.35a1,1,0,1,1,1.58-1.22L146,59.68l6.55-7.08A1,1,0,0,1,154,54l-7.35,7.94A1,1,0,0,1,145.92,62.22Z" opacity="0.12"></path><polygon points="218.76 19.76 218.76 39.76 231.68 39.76 234.51 47.72 237.85 39.76 250.77 39.76 250.77 19.76 218.76 19.76" fill="#e6e6e6"></polygon><path d="M233.15,34.22h0a1,1,0,0,1-.75-.38L229,29.49a1,1,0,0,1,.18-1.41,1,1,0,0,1,1.4.18l2.66,3.42,6.55-7.08A1,1,0,0,1,241.24,26l-7.36,7.94A1,1,0,0,1,233.15,34.22Z" opacity="0.12"></path><path d="M152.37,100.62s.32,7-1,11.59a3.53,3.53,0,0,1-4.4,2.36c-2.3-.72-5.21-2.36-5.83-6.09l-1.84-6.2a6.3,6.3,0,0,1,3-6.61C146.36,93,152.39,96.35,152.37,100.62Z" fill="#f4a28c"></path><polygon points="139.74 105.44 137.14 128.26 149.81 128.79 146.62 111.98 139.74 105.44" fill="#f4a28c"></polygon><path d="M150.62,100.84a27.88,27.88,0,0,1-6.43-.76,5.85,5.85,0,0,1-.26,6.41,4.77,4.77,0,0,1-5.82,1.66l.48-9A7.14,7.14,0,0,1,142.46,93a26.62,26.62,0,0,1,3.07-1.35c2.63-.93,6.35,1,8.75-.7a1.69,1.69,0,0,1,2.63,1.22c.29,2.75-.38,7-4.14,8.38A6.54,6.54,0,0,1,150.62,100.84Z" fill="#24285b"></path><path d="M144.68,106.31s.06-2.7-2-2.57-2.14,4,.6,4.49Z" fill="#f4a28c"></path><path d="M152.35,105l1.84,2.78a1.13,1.13,0,0,1-.78,1.73l-2.7.39Z" fill="#f4a28c"></path><path d="M146.44,112.53a8.35,8.35,0,0,1-4.57-1.36s.18,4.24,5.67,7.12Z" fill="#ce8172" opacity="0.31"></path><path d="M167,129.68s-49.37-9.46-66.24,0,18.51,97.5,18.51,97.5l52-1.64S216.77,138.73,167,129.68Z" fill="#210A54"></path><path d="M167.48,169.22s5.84-7.06,9.84-6.06,4,9.35-7.17,13.17Z" fill="#f4a28c"></path><path d="M113.73,134.6s16.09,7.14,14.84,31.14,32.08,13,50.91,2.74L170.15,203H103.32V157.24Z" opacity="0.08"></path><polygon points="268.6 187.09 274.82 246.16 205.16 240.4 215.82 191.02 268.6 187.09" fill="#24285b"></polygon><path d="M252.08,103.44s-9.06,16.82,2.77,28.49,11.5,17,11.5,17L229,134.6l-10.85-1.67L209,149a103,103,0,0,0,5.54,10.82l2.28,5.32,25.87,4.47A12.67,12.67,0,0,1,252.9,185l-.82,3.48,16.52-1.38s9.35-16,12.38-29.42,5.95-23.07,5.95-23.07Z" opacity="0.08"></path><path d="M305.58,192.46s-9.21-2.51-11.21-11.08c0,0,14.27-2.89,14.67,11.84Z" fill="#210A54" opacity="0.58"></path><path d="M306.71,191.55s-6.44-10.17-.77-19.69c0,0,10.85,6.9,6,19.71Z" fill="#210A54" opacity="0.73"></path><path d="M308.37,191.56s3.4-10.75,13.68-12.78c0,0,1.92,7-6.66,12.81Z" fill="#210A54"></path><polygon points="301.69 191.32 303.56 204.09 315.32 204.14 317.05 191.38 301.69 191.32" fill="#24285b"></polygon><rect x="68.18" y="209.17" width="263.63" height="62.46" fill="#c9c9c9"></rect><path d="M94.15,134.47C86.58,143.29,79.53,161,89.54,195a16.7,16.7,0,0,0,23.52,10.19l57.09-28.89-3.68-9.81L112.15,186s10.11-31.2,3.5-48.08A12.69,12.69,0,0,0,94.15,134.47Z" fill="#210A54"></path><path d="M141.07,204.32l2-6.33,19.51-1.38a7.54,7.54,0,0,0,6.48-4.74L181,162h50.67L217,203.19Z" fill="#ffd200"></path><path d="M94.15,134.47C86.58,143.29,79.53,161,89.54,195a16.7,16.7,0,0,0,23.52,10.19l57.09-28.89-3.68-9.81L112.15,186s10.11-31.2,3.5-48.08A12.69,12.69,0,0,0,94.15,134.47Z" fill="#fff" opacity="0.46"></path><rect x="68.18" y="203.02" width="263.63" height="11.27" fill="#e6e6e6"></rect><circle cx="202.15" cy="181.82" r="4.33" fill="#fff"></circle><path d="M291,203.12s5.5,49.22-34,68.51h74.8V203Z" opacity="0.08"></path><path d="M217.33,132.88h5.27a6.41,6.41,0,0,1,6.4,6.4h0a6.4,6.4,0,0,1-6.4,6.4h-5.27" fill="none" stroke="#ffd200" stroke-miterlimit="10" stroke-width="2"></path><path d="M251.93,105.41a10.61,10.61,0,0,1,14.39-10c7.11,2.66,16.79,8.57,26.5,21.59,18.83,25.25,24.33,31.75,16.58,40.5S236.82,147,236.82,147s-14-2.25-11.61-10,13.94,1,13.94,1l46.4,4.25S252.33,127,251.93,105.41Z" fill="#f4a28c"></path><rect x="206.48" y="129.56" width="15.12" height="19.4" fill="#24285b"></rect><circle cx="214.32" cy="138.69" r="4.66" fill="#fff" opacity="0.13"></circle><path d="M227.27,174.29S211.68,200.11,175,203l42,.17Z" opacity="0.08"></path><path d="M221.6,129.56s2.94-9-4.27-12.44-12.71-3.26-10.85-16.81-1.26-21.58-16.19-24.23-32,9.69-20.14,22.19,26.2,5.87,24,18.85,12.3,12.44,12.3,12.44Z" fill="#210A54" opacity="0.2"></path></svg>