<svg xmlns="http://www.w3.org/2000/svg" viewBox="0 0 400 300" width="0" height="0" class="illustration styles_illustrationTablet__1DWOa"><g id="_34" data-name="#34"><path d="M198.86,83.07s23.75,2.5,30,12.8,51.17,66.92,51.17,66.92L126.76,162s3.11-55.36,32.73-73.09C159.49,89,165.89,79.46,198.86,83.07Z" fill="#210A54"></path><polygon points="178.54 84.26 200.91 133.27 198.86 83.07 178.54 84.26" fill="#231f20"></polygon><path d="M200.92,133.71a.45.45,0,0,1-.41-.25l-22.37-49a.43.43,0,0,1,0-.41.44.44,0,0,1,.35-.21l20.31-1.19a.48.48,0,0,1,.33.12.47.47,0,0,1,.14.3l2.06,50.21a.45.45,0,0,1-.34.44ZM179.21,84.66l21.17,46.39-1.94-47.51Z" fill="#231f20"></path><path d="M203.18,59a8,8,0,0,1,1.56-2.86,2.66,2.66,0,0,1,3-.71,2.56,2.56,0,0,1,1.26,2,5.67,5.67,0,0,1-.41,2.43,9.71,9.71,0,0,1-2.36,3.89A5.66,5.66,0,0,1,202,65.45" fill="#fff"></path><path d="M202.36,65.86l-.34,0a.4.4,0,1,1,0-.79,5.21,5.21,0,0,0,3.86-1.52,9.28,9.28,0,0,0,2.27-3.73,5.46,5.46,0,0,0,.38-2.26,2.13,2.13,0,0,0-1-1.71,2.27,2.27,0,0,0-2.52.63,7.48,7.48,0,0,0-1.46,2.72.41.41,0,0,1-.52.24.4.4,0,0,1-.23-.51,8.24,8.24,0,0,1,1.64-3,3.05,3.05,0,0,1,3.45-.78,2.9,2.9,0,0,1,1.47,2.34,6.08,6.08,0,0,1-.42,2.6,10.1,10.1,0,0,1-2.47,4A6.1,6.1,0,0,1,202.36,65.86Z" fill="#231f20"></path><path d="M197.39,73.67l1.31,13s-.64,7.4-8.76,5.93a16.48,16.48,0,0,1-11.4-8.35l.31-23.33c0-1,1.93-4.22,1-12.47A20.19,20.19,0,0,0,194,40.41s3.77,4.66,5.36,6.1a19.55,19.55,0,0,1,3.34,3.64c2.5,3.79,2.42,10,1.81,14.3C204,68.06,201.91,73.76,197.39,73.67Z" fill="#fff"></path><path d="M192,93.26a12.2,12.2,0,0,1-2.11-.2,16.76,16.76,0,0,1-11.73-8.6.48.48,0,0,1,0-.2s.3-23.24.3-23.34a4.71,4.71,0,0,1,.27-1.24,26.43,26.43,0,0,0,.73-11.17.52.52,0,0,1,.1-.34.47.47,0,0,1,.31-.16,19.94,19.94,0,0,0,13.81-7.84A.4.4,0,0,1,194,40a.41.41,0,0,1,.38.17s3.77,4.64,5.31,6a20.07,20.07,0,0,1,3.42,3.73c2.93,4.44,2.29,11.7,1.88,14.62-.49,3.48-2.52,9.27-7,9.6l1.25,12.51a7.86,7.86,0,0,1-2.78,5.26A7,7,0,0,1,192,93.26Zm-13-9.1a16.17,16.17,0,0,0,11,8,7.13,7.13,0,0,0,5.79-1,7,7,0,0,0,2.43-4.53l-1.3-12.92a.48.48,0,0,1,.12-.36.4.4,0,0,1,.34-.14h.1c4.18,0,6.08-5.54,6.55-8.83.39-2.81,1-9.81-1.74-14A19.52,19.52,0,0,0,199,46.84a74.12,74.12,0,0,1-5-5.67,20.7,20.7,0,0,1-13.66,7.69,26.89,26.89,0,0,1-.82,11.08,4.79,4.79,0,0,0-.22,1S179.31,60.94,179,84.16Z" fill="#231f20"></path><path d="M197.84,78a11.62,11.62,0,0,1-6.35-.66c-4.63-1.62-4.9-4.78-4.9-4.78s3.9,2.45,10.8,1.16Z" fill="#231f20"></path><path d="M196,78.56a14.08,14.08,0,0,1-4.6-.85c-4.85-1.7-5.18-5-5.2-5.17a.46.46,0,0,1,.21-.41.44.44,0,0,1,.47,0s3.85,2.34,10.48,1.11a.43.43,0,0,1,.35.08.41.41,0,0,1,.17.31l.44,4.19a.47.47,0,0,1-.15.46.47.47,0,0,1-.31.11A9.9,9.9,0,0,1,196,78.56Zm-8.66-5.22c.42,1,1.51,2.54,4.35,3.54a12.09,12.09,0,0,0,5.71.69L197,74.19A17.38,17.38,0,0,1,187.29,73.34Z" fill="#231f20"></path><path d="M190.68,55.46s4.82,5.83,3.93,7-3.74.75-3.74.75" fill="#fff"></path><path d="M192.05,63.75a8.36,8.36,0,0,1-1.24-.09.45.45,0,0,1-.37-.51.43.43,0,0,1,.5-.37c.67.1,2.73.22,3.32-.57.35-.48-1.51-3.56-3.92-6.47a.44.44,0,0,1,.69-.56C192.54,57,196,61.41,195,62.74A3.68,3.68,0,0,1,192.05,63.75Z" fill="#231f20"></path><path d="M181.51,57.43a9,9,0,0,0-1.46-3.09,4.12,4.12,0,0,0-3.37-1.72,2.68,2.68,0,0,0-2.06,1.11,3.67,3.67,0,0,0-.53,1.55c-.42,2.9.54,6.66,3.26,8.16a2.88,2.88,0,0,0,3.07,0" fill="#fff"></path><path d="M179.08,64.3a4.24,4.24,0,0,1-1.92-.51c-2.87-1.58-3.91-5.51-3.46-8.57a4,4,0,0,1,.59-1.71,3,3,0,0,1,2.37-1.28,4.51,4.51,0,0,1,3.71,1.86,9.82,9.82,0,0,1,1.53,3.23.41.41,0,0,1-.27.5.41.41,0,0,1-.5-.27,8.82,8.82,0,0,0-1.39-3,3.66,3.66,0,0,0-3-1.56A2.29,2.29,0,0,0,175,54a3.35,3.35,0,0,0-.46,1.39c-.41,2.79.5,6.35,3,7.75a2.53,2.53,0,0,0,2.64.07.4.4,0,1,1,.49.63A2.56,2.56,0,0,1,179.08,64.3Z" fill="#231f20"></path><path d="M198.78,65S190.25,75.69,184,63.8" fill="#fff"></path><path d="M191.07,69.84a5.83,5.83,0,0,1-.59,0c-2.66-.25-5-2.2-6.86-5.81a.44.44,0,0,1,.19-.59.44.44,0,0,1,.6.18c1.74,3.32,3.81,5.12,6.15,5.34,4.13.4,7.84-4.21,7.87-4.26a.45.45,0,0,1,.62-.07.44.44,0,0,1,.08.62C199,65.42,195.41,69.84,191.07,69.84Z" fill="#231f20"></path><path d="M184.55,53.21s-.15-2,1.71-2,2.18,2,2.18,2" fill="#fff"></path><path d="M188.44,53.66a.44.44,0,0,1-.44-.38c0-.06-.29-1.64-1.74-1.64a1.17,1.17,0,0,0-.9.33,1.87,1.87,0,0,0-.37,1.21.43.43,0,0,1-.41.47.44.44,0,0,1-.47-.4,2.73,2.73,0,0,1,.6-1.88,2,2,0,0,1,1.55-.62,2.71,2.71,0,0,1,2.61,2.4.43.43,0,0,1-.37.5Z" fill="#231f20"></path><path d="M194.49,52.59s.16-2.33,1.56-2.33,2.64,2,2.64,2" fill="#fff"></path><path d="M194.49,53h0a.44.44,0,0,1-.41-.47c.07-1,.57-2.74,2-2.74,1.6,0,2.87,2,3,2.23a.45.45,0,0,1-.15.61.44.44,0,0,1-.61-.15c-.31-.5-1.32-1.8-2.26-1.8s-1.11,1.89-1.11,1.91A.45.45,0,0,1,194.49,53Z" fill="#231f20"></path><path d="M246.87,104.38a.44.44,0,0,1-.24-.07,46.41,46.41,0,0,1-19.79-23.66c-1.77-4.7-2.52-9.75-3.25-14.63-.86-5.81-1.75-11.81-4.38-17.15-2.39-4.84-6.83-9-13.21-12.45-.61-.32-1.3-.73-2-1.16a25.31,25.31,0,0,0-5.74-2.81c-.63-.12-5.28.06-5.86,1,0,0-.08.13.09.36a.46.46,0,0,1-.11.64.45.45,0,0,1-.64-.11c-3.16-4.43-10-4.62-14.4-2-4,2.35-7.09,6.74-9.22,13-.74,2.21-1.35,4.52-1.93,6.75a75.3,75.3,0,0,1-2.84,9.22c-1.66,4.12-4.34,7.22-6.93,10.22a45.93,45.93,0,0,0-5.45,7.23c-1.84,3.24-3.05,8.2-.41,11.52a.46.46,0,0,1-.72.58c-2.93-3.68-1.65-9.06.33-12.56a46.59,46.59,0,0,1,5.55-7.37c2.54-3,5.17-6,6.78-10a74.14,74.14,0,0,0,2.8-9.11c.59-2.25,1.2-4.57,2-6.81,2.2-6.52,5.43-11.08,9.62-13.55,4.43-2.6,11.14-2.57,14.83,1.33,1.15-1.42,6.37-1.36,6.77-1.26a25.61,25.61,0,0,1,6,2.91c.72.42,1.41.82,2,1.14,6.56,3.51,11.13,7.83,13.6,12.85,2.7,5.47,3.6,11.55,4.48,17.43.71,4.83,1.46,9.82,3.19,14.43a45.53,45.53,0,0,0,19.4,23.2.46.46,0,0,1,.16.63A.45.45,0,0,1,246.87,104.38Z" fill="#231f20"></path><rect x="64.34" y="132.97" width="271.31" height="121.98" rx="13.1" fill="#fff"></rect><path d="M322.55,255.45H77.45a13.62,13.62,0,0,1-13.61-13.6V146.08a13.63,13.63,0,0,1,13.61-13.61h245.1a13.63,13.63,0,0,1,13.61,13.61v95.77A13.62,13.62,0,0,1,322.55,255.45Zm-245.1-122a12.63,12.63,0,0,0-12.61,12.61v95.77a12.63,12.63,0,0,0,12.61,12.6h245.1a12.63,12.63,0,0,0,12.61-12.6V146.08a12.63,12.63,0,0,0-12.61-12.61Z" fill="#231f20"></path><polygon points="325.46 123.37 321.21 148.21 82.64 148.21 88.24 98.16 325.46 123.37" fill="#fff"></polygon><path d="M321.21,148.71H82.64a.48.48,0,0,1-.37-.17.5.5,0,0,1-.13-.39l5.6-50.05a.5.5,0,0,1,.55-.44l237.22,25.21a.5.5,0,0,1,.34.2.48.48,0,0,1,.1.38l-4.25,24.84A.5.5,0,0,1,321.21,148.71Zm-238-1H320.79l4.08-23.9L88.68,98.71Z" fill="#231f20"></path><polygon points="315.04 148.21 77.89 148.21 76.29 122.55 312.26 99.65 315.04 148.21" fill="#fff"></polygon><path d="M315,148.71H77.89a.51.51,0,0,1-.5-.47l-1.6-25.66a.51.51,0,0,1,.45-.53l236-22.9a.5.5,0,0,1,.37.12.48.48,0,0,1,.18.35l2.78,48.56a.5.5,0,0,1-.13.37A.52.52,0,0,1,315,148.71Zm-236.68-1H314.51l-2.72-47.51L76.82,123Z" fill="#231f20"></path><path d="M318,133.14a25.94,25.94,0,0,1-4.77,15.05H270.39A26.17,26.17,0,1,1,318,133.14Z" fill="#231f20"></path><path d="M313.2,148.69H270.39a.51.51,0,0,1-.41-.21,26.67,26.67,0,0,1,21.82-42,26.7,26.7,0,0,1,26.67,26.67,26.43,26.43,0,0,1-4.86,15.34A.49.49,0,0,1,313.2,148.69Zm-42.55-1h42.29a25.68,25.68,0,1,0-42.29,0Z" fill="#231f20"></path><path d="M312.33,136.46a26,26,0,0,1-2.78,11.73H262.76a26.17,26.17,0,1,1,49.57-11.73Z" fill="#fff"></path><path d="M309.55,148.69H262.76a.51.51,0,0,1-.45-.28,26.67,26.67,0,0,1,23.85-38.63,26.71,26.71,0,0,1,26.67,26.68A26.28,26.28,0,0,1,310,148.41.51.51,0,0,1,309.55,148.69Zm-46.48-1h46.17a25.31,25.31,0,0,0,2.59-11.23,25.71,25.71,0,0,0-25.67-25.68A25.37,25.37,0,0,0,276,112.86a25.65,25.65,0,0,0-15.55,23.6A25.31,25.31,0,0,0,263.07,147.69Z" fill="#231f20"></path><path d="M278.84,146.48c0,.58,0,1.14,0,1.71H220.06c0-.57-.05-1.13-.05-1.71a29.42,29.42,0,1,1,58.83,0Z" fill="#231f20"></path><path d="M278.79,148.69H220.06a.51.51,0,0,1-.5-.47c0-.58-.05-1.15-.05-1.74a29.92,29.92,0,1,1,59.83,0c0,.59,0,1.16,0,1.74A.51.51,0,0,1,278.79,148.69Zm-58.26-1h57.78c0-.4,0-.8,0-1.21a28.92,28.92,0,0,0-57.83,0C220.51,146.89,220.52,147.29,220.53,147.69Z" fill="#231f20"></path><path d="M273.76,148.19H215.12a29.41,29.41,0,0,1,58.64,0Z" fill="#fff"></path><path d="M273.76,148.69H215.12a.5.5,0,0,1-.5-.54,29.91,29.91,0,0,1,59.64,0,.48.48,0,0,1-.13.38A.51.51,0,0,1,273.76,148.69Zm-58.1-1h57.56a28.91,28.91,0,0,0-57.56,0Z" fill="#231f20"></path><path d="M330.22,155.12V238a11.36,11.36,0,0,1-11.36,11.35H81.13A11.35,11.35,0,0,1,69.79,238V155.12Z" fill="#fff"></path><path d="M330.22,157.12a.5.5,0,0,1-.5-.5v-1h-1a.5.5,0,0,1-.5-.5.5.5,0,0,1,.5-.5h1.5a.5.5,0,0,1,.5.5v1.5A.5.5,0,0,1,330.22,157.12Z" fill="#d1d3d4"></path><path d="M318.81,249.83h-3a.5.5,0,0,1-.5-.5.5.5,0,0,1,.5-.5h3a.5.5,0,0,1,.5.5A.51.51,0,0,1,318.81,249.83Zm-6,0h-3a.5.5,0,0,1-.5-.5.5.5,0,0,1,.5-.5h3a.5.5,0,0,1,.5.5A.5.5,0,0,1,312.79,249.83Zm-6,0h-3a.5.5,0,0,1-.5-.5.5.5,0,0,1,.5-.5h3a.5.5,0,0,1,.5.5A.51.51,0,0,1,306.78,249.83Zm-6,0h-3a.51.51,0,0,1-.5-.5.5.5,0,0,1,.5-.5h3a.5.5,0,0,1,.5.5A.5.5,0,0,1,300.76,249.83Zm-6,0h-3a.5.5,0,0,1-.5-.5.5.5,0,0,1,.5-.5h3a.5.5,0,0,1,.5.5A.51.51,0,0,1,294.75,249.83Zm-6,0h-3a.5.5,0,0,1-.5-.5.5.5,0,0,1,.5-.5h3a.5.5,0,0,1,.5.5A.5.5,0,0,1,288.73,249.83Zm-6,0h-3a.5.5,0,0,1-.5-.5.5.5,0,0,1,.5-.5h3a.5.5,0,0,1,.5.5A.51.51,0,0,1,282.72,249.83Zm-6,0h-3a.5.5,0,0,1-.5-.5.5.5,0,0,1,.5-.5h3a.5.5,0,0,1,.5.5A.5.5,0,0,1,276.7,249.83Zm-6,0h-3a.5.5,0,0,1-.5-.5.5.5,0,0,1,.5-.5h3a.5.5,0,0,1,.5.5A.51.51,0,0,1,270.69,249.83Zm-6,0h-3a.5.5,0,0,1-.5-.5.5.5,0,0,1,.5-.5h3a.5.5,0,0,1,.5.5A.5.5,0,0,1,264.67,249.83Zm-6,0h-3a.5.5,0,0,1-.5-.5.5.5,0,0,1,.5-.5h3a.5.5,0,0,1,.5.5A.51.51,0,0,1,258.66,249.83Zm-6,0h-3a.5.5,0,0,1-.5-.5.5.5,0,0,1,.5-.5h3a.5.5,0,0,1,.5.5A.5.5,0,0,1,252.64,249.83Zm-6,0h-3a.5.5,0,0,1-.5-.5.5.5,0,0,1,.5-.5h3a.5.5,0,0,1,.5.5A.51.51,0,0,1,246.63,249.83Zm-6,0h-3a.5.5,0,0,1-.5-.5.5.5,0,0,1,.5-.5h3a.5.5,0,0,1,.5.5A.5.5,0,0,1,240.61,249.83Zm-6,0h-3a.5.5,0,0,1-.5-.5.5.5,0,0,1,.5-.5h3a.5.5,0,0,1,.5.5A.51.51,0,0,1,234.6,249.83Zm-6,0h-3a.5.5,0,0,1-.5-.5.5.5,0,0,1,.5-.5h3a.5.5,0,0,1,.5.5A.5.5,0,0,1,228.58,249.83Zm-6,0h-3a.5.5,0,0,1-.5-.5.5.5,0,0,1,.5-.5h3a.5.5,0,0,1,.5.5A.51.51,0,0,1,222.57,249.83Zm-6,0h-3a.5.5,0,0,1-.5-.5.5.5,0,0,1,.5-.5h3a.5.5,0,0,1,.5.5A.5.5,0,0,1,216.55,249.83Zm-6,0h-3a.5.5,0,0,1-.5-.5.5.5,0,0,1,.5-.5h3a.5.5,0,0,1,.5.5A.51.51,0,0,1,210.54,249.83Zm-6,0h-3a.5.5,0,0,1-.5-.5.5.5,0,0,1,.5-.5h3a.5.5,0,0,1,.5.5A.5.5,0,0,1,204.52,249.83Zm-6,0h-3a.5.5,0,0,1-.5-.5.5.5,0,0,1,.5-.5h3a.5.5,0,0,1,.5.5A.51.51,0,0,1,198.51,249.83Zm-6,0h-3a.5.5,0,0,1-.5-.5.5.5,0,0,1,.5-.5h3a.5.5,0,0,1,.5.5A.5.5,0,0,1,192.49,249.83Zm-6,0h-3a.5.5,0,0,1-.5-.5.5.5,0,0,1,.5-.5h3a.5.5,0,0,1,.5.5A.51.51,0,0,1,186.48,249.83Zm-6,0h-3a.5.5,0,0,1-.5-.5.5.5,0,0,1,.5-.5h3a.5.5,0,0,1,.5.5A.5.5,0,0,1,180.46,249.83Zm-6,0h-3a.5.5,0,0,1-.5-.5.5.5,0,0,1,.5-.5h3a.5.5,0,0,1,.5.5A.51.51,0,0,1,174.45,249.83Zm-6,0h-3a.5.5,0,0,1-.5-.5.5.5,0,0,1,.5-.5h3a.5.5,0,0,1,.5.5A.5.5,0,0,1,168.43,249.83Zm-6,0h-3a.5.5,0,0,1-.5-.5.5.5,0,0,1,.5-.5h3a.5.5,0,0,1,.5.5A.51.51,0,0,1,162.42,249.83Zm-6,0h-3a.5.5,0,0,1-.5-.5.5.5,0,0,1,.5-.5h3a.5.5,0,0,1,.5.5A.5.5,0,0,1,156.4,249.83Zm-6,0h-3a.5.5,0,0,1-.5-.5.5.5,0,0,1,.5-.5h3a.5.5,0,0,1,.5.5A.51.51,0,0,1,150.39,249.83Zm-6,0h-3a.5.5,0,0,1-.5-.5.5.5,0,0,1,.5-.5h3a.5.5,0,0,1,.5.5A.5.5,0,0,1,144.37,249.83Zm-6,0h-3a.5.5,0,0,1-.5-.5.5.5,0,0,1,.5-.5h3a.5.5,0,0,1,.5.5A.51.51,0,0,1,138.36,249.83Zm-6,0h-3a.5.5,0,0,1-.5-.5.5.5,0,0,1,.5-.5h3a.5.5,0,0,1,.5.5A.5.5,0,0,1,132.34,249.83Zm-6,0h-3a.5.5,0,0,1-.5-.5.5.5,0,0,1,.5-.5h3a.5.5,0,0,1,.5.5A.51.51,0,0,1,126.33,249.83Zm-6,0h-3a.5.5,0,0,1-.5-.5.5.5,0,0,1,.5-.5h3a.5.5,0,0,1,.5.5A.5.5,0,0,1,120.31,249.83Zm-6,0h-3a.5.5,0,0,1-.5-.5.5.5,0,0,1,.5-.5h3a.5.5,0,0,1,.5.5A.51.51,0,0,1,114.3,249.83Zm-6,0h-3a.5.5,0,0,1-.5-.5.5.5,0,0,1,.5-.5h3a.5.5,0,0,1,.5.5A.5.5,0,0,1,108.28,249.83Zm-6,0h-3a.5.5,0,0,1-.5-.5.5.5,0,0,1,.5-.5h3a.5.5,0,0,1,.5.5A.51.51,0,0,1,102.27,249.83Zm-6,0h-3a.5.5,0,0,1-.5-.5.5.5,0,0,1,.5-.5h3a.5.5,0,0,1,.5.5A.5.5,0,0,1,96.25,249.83Zm-6,0h-3a.5.5,0,0,1-.5-.5.5.5,0,0,1,.5-.5h3a.5.5,0,0,1,.5.5A.51.51,0,0,1,90.24,249.83Zm-6,0h-3a.5.5,0,0,1-.5-.5.5.5,0,0,1,.5-.5h3a.5.5,0,0,1,.5.5A.5.5,0,0,1,84.22,249.83Zm-6-.37-.13,0a12.14,12.14,0,0,1-2.89-1.19.5.5,0,1,1,.5-.87,10.58,10.58,0,0,0,2.65,1.09.5.5,0,0,1,.35.61A.49.49,0,0,1,78.24,249.46Zm243.54,0a.5.5,0,0,1-.48-.37.52.52,0,0,1,.35-.62,10.58,10.58,0,0,0,2.65-1.09.5.5,0,1,1,.5.86,11.61,11.61,0,0,1-2.89,1.2Zm-248.69-3a.47.47,0,0,1-.35-.15,11.81,11.81,0,0,1-1.9-2.49.5.5,0,0,1,.19-.68.49.49,0,0,1,.68.19,10.93,10.93,0,0,0,1.74,2.28.49.49,0,0,1,0,.7A.47.47,0,0,1,73.09,246.49Zm253.83,0a.5.5,0,0,1-.35-.85,10.45,10.45,0,0,0,1.73-2.29.51.51,0,0,1,.69-.18.49.49,0,0,1,.18.68,11.77,11.77,0,0,1-1.89,2.49A.51.51,0,0,1,326.92,246.47ZM70.14,241.33a.5.5,0,0,1-.48-.38,11.35,11.35,0,0,1-.37-3v-.13a.5.5,0,0,1,.5-.5.5.5,0,0,1,.5.5V238a10.35,10.35,0,0,0,.34,2.72.5.5,0,0,1-.36.61Zm259.73,0h-.13a.5.5,0,0,1-.36-.61,10.69,10.69,0,0,0,.34-2.7v-.15a.5.5,0,0,1,1,0V238a12.17,12.17,0,0,1-.37,3A.5.5,0,0,1,329.87,241.3Zm-260.08-6a.5.5,0,0,1-.5-.5v-3a.5.5,0,0,1,.5-.5.5.5,0,0,1,.5.5v3A.5.5,0,0,1,69.79,235.34Zm260.43,0a.5.5,0,0,1-.5-.5v-3a.5.5,0,1,1,1,0v3A.5.5,0,0,1,330.22,235.32Zm-260.43-6a.5.5,0,0,1-.5-.5v-3a.5.5,0,0,1,.5-.5.5.5,0,0,1,.5.5v3A.51.51,0,0,1,69.79,229.33Zm260.43,0a.5.5,0,0,1-.5-.5v-3a.5.5,0,1,1,1,0v3A.5.5,0,0,1,330.22,229.3Zm-260.43-6a.5.5,0,0,1-.5-.5v-3a.5.5,0,0,1,.5-.5.5.5,0,0,1,.5.5v3A.5.5,0,0,1,69.79,223.31Zm260.43,0a.5.5,0,0,1-.5-.5v-3a.5.5,0,1,1,1,0v3A.5.5,0,0,1,330.22,223.29Zm-260.43-6a.5.5,0,0,1-.5-.5v-3a.5.5,0,0,1,.5-.5.5.5,0,0,1,.5.5v3A.51.51,0,0,1,69.79,217.3Zm260.43,0a.5.5,0,0,1-.5-.5v-3a.5.5,0,1,1,1,0v3A.5.5,0,0,1,330.22,217.27Zm-260.43-6a.5.5,0,0,1-.5-.5v-3a.5.5,0,0,1,.5-.5.5.5,0,0,1,.5.5v3A.5.5,0,0,1,69.79,211.28Zm260.43,0a.5.5,0,0,1-.5-.5v-3a.5.5,0,0,1,1,0v3A.5.5,0,0,1,330.22,211.26Zm-260.43-6a.5.5,0,0,1-.5-.5v-3a.5.5,0,0,1,.5-.5.5.5,0,0,1,.5.5v3A.51.51,0,0,1,69.79,205.27Zm260.43,0a.5.5,0,0,1-.5-.5v-3a.5.5,0,0,1,1,0v3A.5.5,0,0,1,330.22,205.24Zm-260.43-6a.5.5,0,0,1-.5-.5v-3a.5.5,0,0,1,.5-.5.5.5,0,0,1,.5.5v3A.5.5,0,0,1,69.79,199.25Zm260.43,0a.5.5,0,0,1-.5-.5v-3a.5.5,0,0,1,1,0v3A.5.5,0,0,1,330.22,199.23Zm-260.43-6a.5.5,0,0,1-.5-.5v-3a.5.5,0,0,1,.5-.5.5.5,0,0,1,.5.5v3A.51.51,0,0,1,69.79,193.24Zm260.43,0a.5.5,0,0,1-.5-.5v-3a.5.5,0,0,1,1,0v3A.5.5,0,0,1,330.22,193.21Zm-260.43-6a.5.5,0,0,1-.5-.5v-3a.5.5,0,0,1,.5-.5.5.5,0,0,1,.5.5v3A.5.5,0,0,1,69.79,187.22Zm260.43,0a.5.5,0,0,1-.5-.5v-3a.5.5,0,0,1,1,0v3A.5.5,0,0,1,330.22,187.2Zm-260.43-6a.5.5,0,0,1-.5-.5v-3a.5.5,0,0,1,.5-.5.5.5,0,0,1,.5.5v3A.51.51,0,0,1,69.79,181.21Zm260.43,0a.5.5,0,0,1-.5-.5v-3a.5.5,0,0,1,1,0v3A.5.5,0,0,1,330.22,181.18Zm-260.43-6a.5.5,0,0,1-.5-.5v-3a.5.5,0,0,1,.5-.5.5.5,0,0,1,.5.5v3A.5.5,0,0,1,69.79,175.19Zm260.43,0a.5.5,0,0,1-.5-.5v-3a.5.5,0,1,1,1,0v3A.5.5,0,0,1,330.22,175.17Zm-260.43-6a.5.5,0,0,1-.5-.5v-3a.5.5,0,0,1,.5-.5.5.5,0,0,1,.5.5v3A.51.51,0,0,1,69.79,169.18Zm260.43,0a.5.5,0,0,1-.5-.5v-3a.5.5,0,1,1,1,0v3A.5.5,0,0,1,330.22,169.15Zm-260.43-6a.5.5,0,0,1-.5-.5v-3a.5.5,0,0,1,.5-.5.5.5,0,0,1,.5.5v3A.5.5,0,0,1,69.79,163.16Zm260.43,0a.5.5,0,0,1-.5-.5v-3a.5.5,0,0,1,1,0v3A.5.5,0,0,1,330.22,163.14Z" fill="#d1d3d4"></path><path d="M69.79,157.12a.5.5,0,0,1-.5-.5v-1.5a.5.5,0,0,1,.5-.5h1.5a.51.51,0,0,1,.5.5.5.5,0,0,1-.5.5h-1v1A.5.5,0,0,1,69.79,157.12Z" fill="#d1d3d4"></path><path d="M325.69,155.62h-3a.5.5,0,0,1-.5-.5.51.51,0,0,1,.5-.5h3a.5.5,0,0,1,.5.5A.5.5,0,0,1,325.69,155.62Zm-6.06,0h-3a.5.5,0,0,1-.5-.5.5.5,0,0,1,.5-.5h3a.5.5,0,0,1,.5.5A.5.5,0,0,1,319.63,155.62Zm-6.05,0h-3a.5.5,0,0,1-.5-.5.5.5,0,0,1,.5-.5h3a.51.51,0,0,1,.5.5A.5.5,0,0,1,313.58,155.62Zm-6.06,0h-3a.5.5,0,0,1-.5-.5.5.5,0,0,1,.5-.5h3a.5.5,0,0,1,.5.5A.5.5,0,0,1,307.52,155.62Zm-6.06,0h-3a.5.5,0,0,1-.5-.5.51.51,0,0,1,.5-.5h3a.5.5,0,0,1,.5.5A.5.5,0,0,1,301.46,155.62Zm-6,0h-3a.5.5,0,0,1-.5-.5.5.5,0,0,1,.5-.5h3a.51.51,0,0,1,.5.5A.5.5,0,0,1,295.41,155.62Zm-6.06,0h-3a.5.5,0,0,1-.5-.5.5.5,0,0,1,.5-.5h3a.51.51,0,0,1,.5.5A.5.5,0,0,1,289.35,155.62Zm-6.06,0h-3a.5.5,0,0,1-.5-.5.51.51,0,0,1,.5-.5h3a.5.5,0,0,1,.5.5A.5.5,0,0,1,283.29,155.62Zm-6.06,0h-3a.5.5,0,0,1-.5-.5.51.51,0,0,1,.5-.5h3a.5.5,0,0,1,.5.5A.5.5,0,0,1,277.23,155.62Zm-6.05,0h-3a.5.5,0,0,1-.5-.5.5.5,0,0,1,.5-.5h3a.51.51,0,0,1,.5.5A.5.5,0,0,1,271.18,155.62Zm-6.06,0h-3a.5.5,0,0,1-.5-.5.5.5,0,0,1,.5-.5h3a.51.51,0,0,1,.5.5A.5.5,0,0,1,265.12,155.62Zm-6.06,0h-3a.5.5,0,0,1-.5-.5.51.51,0,0,1,.5-.5h3a.5.5,0,0,1,.5.5A.5.5,0,0,1,259.06,155.62Zm-6.06,0h-3a.5.5,0,0,1-.5-.5.5.5,0,0,1,.5-.5h3a.5.5,0,0,1,.5.5A.5.5,0,0,1,253,155.62Zm-6.05,0h-3a.5.5,0,0,1-.5-.5.5.5,0,0,1,.5-.5h3a.51.51,0,0,1,.5.5A.5.5,0,0,1,247,155.62Zm-6.06,0h-3a.5.5,0,0,1-.5-.5.5.5,0,0,1,.5-.5h3a.5.5,0,0,1,.5.5A.5.5,0,0,1,240.89,155.62Zm-6.06,0h-3a.5.5,0,0,1-.5-.5.51.51,0,0,1,.5-.5h3a.5.5,0,0,1,.5.5A.5.5,0,0,1,234.83,155.62Zm-6.06,0h-3a.5.5,0,0,1-.5-.5.5.5,0,0,1,.5-.5h3a.5.5,0,0,1,.5.5A.5.5,0,0,1,228.77,155.62Zm-6.05,0h-3a.5.5,0,0,1-.5-.5.5.5,0,0,1,.5-.5h3a.51.51,0,0,1,.5.5A.5.5,0,0,1,222.72,155.62Zm-6.06,0h-3a.5.5,0,0,1-.5-.5.51.51,0,0,1,.5-.5h3a.5.5,0,0,1,.5.5A.5.5,0,0,1,216.66,155.62Zm-6.06,0h-3a.5.5,0,0,1-.5-.5.51.51,0,0,1,.5-.5h3a.5.5,0,0,1,.5.5A.5.5,0,0,1,210.6,155.62Zm-6,0h-3a.5.5,0,0,1-.5-.5.5.5,0,0,1,.5-.5h3a.51.51,0,0,1,.5.5A.5.5,0,0,1,204.55,155.62Zm-6.06,0h-3a.5.5,0,0,1-.5-.5.5.5,0,0,1,.5-.5h3a.51.51,0,0,1,.5.5A.5.5,0,0,1,198.49,155.62Zm-6.06,0h-3a.5.5,0,0,1-.5-.5.51.51,0,0,1,.5-.5h3a.5.5,0,0,1,.5.5A.5.5,0,0,1,192.43,155.62Zm-6.06,0h-3a.5.5,0,0,1-.5-.5.5.5,0,0,1,.5-.5h3a.5.5,0,0,1,.5.5A.5.5,0,0,1,186.37,155.62Zm-6.05,0h-3a.5.5,0,0,1-.5-.5.5.5,0,0,1,.5-.5h3a.51.51,0,0,1,.5.5A.5.5,0,0,1,180.32,155.62Zm-6.06,0h-3a.5.5,0,0,1-.5-.5.5.5,0,0,1,.5-.5h3a.5.5,0,0,1,.5.5A.5.5,0,0,1,174.26,155.62Zm-6.06,0h-3a.5.5,0,0,1-.5-.5.51.51,0,0,1,.5-.5h3a.5.5,0,0,1,.5.5A.5.5,0,0,1,168.2,155.62Zm-6.06,0h-3a.5.5,0,0,1-.5-.5.5.5,0,0,1,.5-.5h3a.5.5,0,0,1,.5.5A.5.5,0,0,1,162.14,155.62Zm-6,0h-3a.5.5,0,0,1-.5-.5.5.5,0,0,1,.5-.5h3a.51.51,0,0,1,.5.5A.5.5,0,0,1,156.09,155.62Zm-6.06,0h-3a.5.5,0,0,1-.5-.5.51.51,0,0,1,.5-.5h3a.5.5,0,0,1,.5.5A.5.5,0,0,1,150,155.62Zm-6.06,0h-3a.5.5,0,0,1-.5-.5.51.51,0,0,1,.5-.5h3a.5.5,0,0,1,.5.5A.5.5,0,0,1,144,155.62Zm-6.05,0h-3a.5.5,0,0,1-.5-.5.5.5,0,0,1,.5-.5h3a.51.51,0,0,1,.5.5A.5.5,0,0,1,137.92,155.62Zm-6.06,0h-3a.5.5,0,0,1-.5-.5.5.5,0,0,1,.5-.5h3a.51.51,0,0,1,.5.5A.5.5,0,0,1,131.86,155.62Zm-6.06,0h-3a.5.5,0,0,1-.5-.5.51.51,0,0,1,.5-.5h3a.5.5,0,0,1,.5.5A.5.5,0,0,1,125.8,155.62Zm-6.06,0h-3a.5.5,0,0,1-.5-.5.5.5,0,0,1,.5-.5h3a.5.5,0,0,1,.5.5A.5.5,0,0,1,119.74,155.62Zm-6,0h-3a.5.5,0,0,1-.5-.5.5.5,0,0,1,.5-.5h3a.51.51,0,0,1,.5.5A.5.5,0,0,1,113.69,155.62Zm-6.06,0h-3a.5.5,0,0,1-.5-.5.5.5,0,0,1,.5-.5h3a.5.5,0,0,1,.5.5A.5.5,0,0,1,107.63,155.62Zm-6.06,0h-3a.5.5,0,0,1-.5-.5.51.51,0,0,1,.5-.5h3a.5.5,0,0,1,.5.5A.5.5,0,0,1,101.57,155.62Zm-6.06,0h-3a.5.5,0,0,1-.5-.5.5.5,0,0,1,.5-.5h3a.5.5,0,0,1,.5.5A.5.5,0,0,1,95.51,155.62Zm-6.05,0h-3a.5.5,0,0,1-.5-.5.5.5,0,0,1,.5-.5h3a.51.51,0,0,1,.5.5A.5.5,0,0,1,89.46,155.62Zm-6.06,0h-3a.5.5,0,0,1-.5-.5.51.51,0,0,1,.5-.5h3a.5.5,0,0,1,.5.5A.5.5,0,0,1,83.4,155.62Zm-6.06,0h-3a.5.5,0,0,1-.5-.5.51.51,0,0,1,.5-.5h3a.5.5,0,0,1,.5.5A.5.5,0,0,1,77.34,155.62Z" fill="#d1d3d4"></path><path d="M192.8,155.12v94.21H81.13A11.35,11.35,0,0,1,69.79,238V155.12Z" fill="#fff"></path><path d="M192.8,157.12a.5.5,0,0,1-.5-.5v-1h-1a.5.5,0,0,1-.5-.5.51.51,0,0,1,.5-.5h1.5a.5.5,0,0,1,.5.5v1.5A.5.5,0,0,1,192.8,157.12Z" fill="#d1d3d4"></path><path d="M192.8,245.39a.51.51,0,0,1-.5-.5v-2.95a.51.51,0,0,1,.5-.5.5.5,0,0,1,.5.5v2.95A.5.5,0,0,1,192.8,245.39Zm0-5.89a.5.5,0,0,1-.5-.5v-2.94a.5.5,0,0,1,.5-.5.5.5,0,0,1,.5.5V239A.5.5,0,0,1,192.8,239.5Zm0-5.88a.51.51,0,0,1-.5-.5v-2.94a.5.5,0,0,1,.5-.5.5.5,0,0,1,.5.5v2.94A.5.5,0,0,1,192.8,233.62Zm0-5.89a.5.5,0,0,1-.5-.5v-2.94a.51.51,0,0,1,.5-.5.5.5,0,0,1,.5.5v2.94A.5.5,0,0,1,192.8,227.73Zm0-5.88a.5.5,0,0,1-.5-.5v-2.94a.5.5,0,0,1,.5-.5.5.5,0,0,1,.5.5v2.94A.5.5,0,0,1,192.8,221.85Zm0-5.88a.51.51,0,0,1-.5-.5v-2.95a.51.51,0,0,1,.5-.5.5.5,0,0,1,.5.5v2.95A.5.5,0,0,1,192.8,216Zm0-5.89a.5.5,0,0,1-.5-.5v-2.94a.5.5,0,0,1,.5-.5.5.5,0,0,1,.5.5v2.94A.5.5,0,0,1,192.8,210.08Zm0-5.88a.51.51,0,0,1-.5-.5v-2.94a.5.5,0,0,1,.5-.5.5.5,0,0,1,.5.5v2.94A.5.5,0,0,1,192.8,204.2Zm0-5.89a.5.5,0,0,1-.5-.5v-2.94a.51.51,0,0,1,.5-.5.5.5,0,0,1,.5.5v2.94A.5.5,0,0,1,192.8,198.31Zm0-5.88a.5.5,0,0,1-.5-.5V189a.5.5,0,0,1,.5-.5.5.5,0,0,1,.5.5v2.94A.5.5,0,0,1,192.8,192.43Zm0-5.88a.51.51,0,0,1-.5-.5v-3a.51.51,0,0,1,.5-.5.5.5,0,0,1,.5.5v3A.5.5,0,0,1,192.8,186.55Zm0-5.89a.5.5,0,0,1-.5-.5v-2.94a.5.5,0,0,1,.5-.5.5.5,0,0,1,.5.5v2.94A.5.5,0,0,1,192.8,180.66Zm0-5.88a.51.51,0,0,1-.5-.5v-2.95a.51.51,0,0,1,.5-.5.5.5,0,0,1,.5.5v2.95A.5.5,0,0,1,192.8,174.78Zm0-5.89a.5.5,0,0,1-.5-.5v-2.94a.5.5,0,0,1,.5-.5.5.5,0,0,1,.5.5v2.94A.5.5,0,0,1,192.8,168.89Zm0-5.88a.5.5,0,0,1-.5-.5v-2.94a.5.5,0,0,1,.5-.5.5.5,0,0,1,.5.5v2.94A.5.5,0,0,1,192.8,163Z" fill="#d1d3d4"></path><path d="M192.8,249.83h-1.5a.51.51,0,0,1-.5-.5.5.5,0,0,1,.5-.5h1v-1a.5.5,0,0,1,.5-.5.5.5,0,0,1,.5.5v1.5A.5.5,0,0,1,192.8,249.83Z" fill="#d1d3d4"></path><path d="M188.27,249.83h-3a.5.5,0,0,1-.5-.5.5.5,0,0,1,.5-.5h3a.5.5,0,0,1,.5.5A.5.5,0,0,1,188.27,249.83Zm-6.07,0h-3a.5.5,0,0,1-.5-.5.5.5,0,0,1,.5-.5h3a.5.5,0,0,1,.5.5A.5.5,0,0,1,182.2,249.83Zm-6.07,0h-3a.5.5,0,0,1-.5-.5.5.5,0,0,1,.5-.5h3a.5.5,0,0,1,.5.5A.5.5,0,0,1,176.13,249.83Zm-6.06,0h-3a.5.5,0,0,1-.5-.5.5.5,0,0,1,.5-.5h3a.5.5,0,0,1,.5.5A.51.51,0,0,1,170.07,249.83Zm-6.07,0h-3a.51.51,0,0,1-.5-.5.5.5,0,0,1,.5-.5h3a.5.5,0,0,1,.5.5A.51.51,0,0,1,164,249.83Zm-6.07,0h-3a.5.5,0,0,1-.5-.5.5.5,0,0,1,.5-.5h3a.5.5,0,0,1,.5.5A.5.5,0,0,1,157.93,249.83Zm-6.07,0h-3a.5.5,0,0,1-.5-.5.5.5,0,0,1,.5-.5h3a.5.5,0,0,1,.5.5A.5.5,0,0,1,151.86,249.83Zm-6.07,0h-3a.5.5,0,0,1-.5-.5.5.5,0,0,1,.5-.5h3a.5.5,0,0,1,.5.5A.5.5,0,0,1,145.79,249.83Zm-6.06,0h-3a.51.51,0,0,1-.5-.5.5.5,0,0,1,.5-.5h3a.5.5,0,0,1,.5.5A.51.51,0,0,1,139.73,249.83Zm-6.07,0h-3a.51.51,0,0,1-.5-.5.5.5,0,0,1,.5-.5h3a.5.5,0,0,1,.5.5A.51.51,0,0,1,133.66,249.83Zm-6.07,0h-3a.5.5,0,0,1-.5-.5.5.5,0,0,1,.5-.5h3a.5.5,0,0,1,.5.5A.5.5,0,0,1,127.59,249.83Zm-6.07,0h-3a.5.5,0,0,1-.5-.5.5.5,0,0,1,.5-.5h3a.5.5,0,0,1,.5.5A.5.5,0,0,1,121.52,249.83Zm-6.07,0h-3a.5.5,0,0,1-.5-.5.5.5,0,0,1,.5-.5h3a.5.5,0,0,1,.5.5A.5.5,0,0,1,115.45,249.83Zm-6.06,0h-3a.51.51,0,0,1-.5-.5.5.5,0,0,1,.5-.5h3a.5.5,0,0,1,.5.5A.51.51,0,0,1,109.39,249.83Zm-6.07,0h-3a.51.51,0,0,1-.5-.5.5.5,0,0,1,.5-.5h3a.5.5,0,0,1,.5.5A.51.51,0,0,1,103.32,249.83Zm-6.07,0h-3a.5.5,0,0,1-.5-.5.5.5,0,0,1,.5-.5h3a.5.5,0,0,1,.5.5A.5.5,0,0,1,97.25,249.83Zm-6.07,0h-3a.5.5,0,0,1-.5-.5.5.5,0,0,1,.5-.5h3a.5.5,0,0,1,.5.5A.5.5,0,0,1,91.18,249.83Zm-6.07,0h-3a.5.5,0,0,1-.5-.5.5.5,0,0,1,.5-.5h3a.5.5,0,0,1,.5.5A.5.5,0,0,1,85.11,249.83Zm-6-.19H79a11.72,11.72,0,0,1-3-1,.51.51,0,0,1-.24-.67.5.5,0,0,1,.67-.23,11.08,11.08,0,0,0,2.75.9.5.5,0,0,1-.09,1ZM73.66,247a.54.54,0,0,1-.33-.12,12.43,12.43,0,0,1-2.08-2.38.5.5,0,0,1,.84-.55,10.67,10.67,0,0,0,1.9,2.18.49.49,0,0,1,.05.7A.48.48,0,0,1,73.66,247Zm-3.31-5a.49.49,0,0,1-.47-.35,11.64,11.64,0,0,1-.58-3.1.49.49,0,0,1,.47-.52.46.46,0,0,1,.53.47,10.49,10.49,0,0,0,.53,2.84.5.5,0,0,1-.32.63A.45.45,0,0,1,70.35,242Zm-.56-6a.5.5,0,0,1-.5-.5v-3a.5.5,0,0,1,.5-.5.5.5,0,0,1,.5.5v3A.5.5,0,0,1,69.79,236Zm0-6.07a.5.5,0,0,1-.5-.5v-3a.5.5,0,0,1,.5-.5.5.5,0,0,1,.5.5v3A.5.5,0,0,1,69.79,230Zm0-6.07a.5.5,0,0,1-.5-.5v-3a.5.5,0,0,1,.5-.5.5.5,0,0,1,.5.5v3A.5.5,0,0,1,69.79,223.88Zm0-6.06a.5.5,0,0,1-.5-.5v-3a.5.5,0,0,1,.5-.5.51.51,0,0,1,.5.5v3A.51.51,0,0,1,69.79,217.82Zm0-6.07a.5.5,0,0,1-.5-.5v-3a.5.5,0,0,1,.5-.5.51.51,0,0,1,.5.5v3A.51.51,0,0,1,69.79,211.75Zm0-6.07a.5.5,0,0,1-.5-.5v-3a.5.5,0,0,1,.5-.5.5.5,0,0,1,.5.5v3A.5.5,0,0,1,69.79,205.68Zm0-6.07a.5.5,0,0,1-.5-.5v-3a.5.5,0,0,1,.5-.5.5.5,0,0,1,.5.5v3A.5.5,0,0,1,69.79,199.61Zm0-6.07a.5.5,0,0,1-.5-.5v-3a.5.5,0,0,1,.5-.5.5.5,0,0,1,.5.5v3A.5.5,0,0,1,69.79,193.54Zm0-6.06a.5.5,0,0,1-.5-.5v-3a.5.5,0,0,1,.5-.5.51.51,0,0,1,.5.5v3A.51.51,0,0,1,69.79,187.48Zm0-6.07a.5.5,0,0,1-.5-.5v-3a.5.5,0,0,1,.5-.5.5.5,0,0,1,.5.5v3A.5.5,0,0,1,69.79,181.41Zm0-6.07a.5.5,0,0,1-.5-.5v-3a.5.5,0,0,1,.5-.5.5.5,0,0,1,.5.5v3A.5.5,0,0,1,69.79,175.34Zm0-6.07a.5.5,0,0,1-.5-.5v-3a.5.5,0,0,1,.5-.5.5.5,0,0,1,.5.5v3A.5.5,0,0,1,69.79,169.27Zm0-6.07a.5.5,0,0,1-.5-.5v-3a.5.5,0,0,1,.5-.5.5.5,0,0,1,.5.5v3A.5.5,0,0,1,69.79,163.2Z" fill="#d1d3d4"></path><path d="M69.79,157.12a.5.5,0,0,1-.5-.5v-1.5a.5.5,0,0,1,.5-.5h1.5a.51.51,0,0,1,.5.5.5.5,0,0,1-.5.5h-1v1A.5.5,0,0,1,69.79,157.12Z" fill="#d1d3d4"></path><path d="M188.38,155.62h-2.93a.5.5,0,0,1-.5-.5.5.5,0,0,1,.5-.5h2.93a.51.51,0,0,1,.5.5A.5.5,0,0,1,188.38,155.62Zm-5.86,0h-2.93a.5.5,0,0,1-.5-.5.51.51,0,0,1,.5-.5h2.93a.5.5,0,0,1,.5.5A.5.5,0,0,1,182.52,155.62Zm-5.85,0h-2.93a.5.5,0,0,1-.5-.5.5.5,0,0,1,.5-.5h2.93a.51.51,0,0,1,.5.5A.5.5,0,0,1,176.67,155.62Zm-5.86,0h-2.93a.5.5,0,0,1-.5-.5.51.51,0,0,1,.5-.5h2.93a.5.5,0,0,1,.5.5A.5.5,0,0,1,170.81,155.62Zm-5.85,0H162a.5.5,0,0,1-.5-.5.5.5,0,0,1,.5-.5H165a.51.51,0,0,1,.5.5A.5.5,0,0,1,165,155.62Zm-5.86,0h-2.92a.5.5,0,0,1-.5-.5.5.5,0,0,1,.5-.5h2.92a.5.5,0,0,1,.5.5A.5.5,0,0,1,159.1,155.62Zm-5.85,0h-2.93a.5.5,0,0,1-.5-.5.5.5,0,0,1,.5-.5h2.93a.5.5,0,0,1,.5.5A.5.5,0,0,1,153.25,155.62Zm-5.86,0h-2.92a.5.5,0,0,1-.5-.5.5.5,0,0,1,.5-.5h2.92a.5.5,0,0,1,.5.5A.5.5,0,0,1,147.39,155.62Zm-5.85,0h-2.93a.5.5,0,0,1-.5-.5.51.51,0,0,1,.5-.5h2.93a.5.5,0,0,1,.5.5A.5.5,0,0,1,141.54,155.62Zm-5.85,0h-2.93a.5.5,0,0,1-.5-.5.5.5,0,0,1,.5-.5h2.93a.51.51,0,0,1,.5.5A.5.5,0,0,1,135.69,155.62Zm-5.86,0H126.9a.5.5,0,0,1-.5-.5.51.51,0,0,1,.5-.5h2.93a.5.5,0,0,1,.5.5A.5.5,0,0,1,129.83,155.62Zm-5.85,0h-2.93a.5.5,0,0,1-.5-.5.5.5,0,0,1,.5-.5H124a.51.51,0,0,1,.5.5A.5.5,0,0,1,124,155.62Zm-5.86,0h-2.93a.5.5,0,0,1-.5-.5.51.51,0,0,1,.5-.5h2.93a.5.5,0,0,1,.5.5A.5.5,0,0,1,118.12,155.62Zm-5.85,0h-2.93a.5.5,0,0,1-.5-.5.5.5,0,0,1,.5-.5h2.93a.51.51,0,0,1,.5.5A.5.5,0,0,1,112.27,155.62Zm-5.86,0h-2.92a.5.5,0,0,1-.5-.5.5.5,0,0,1,.5-.5h2.92a.5.5,0,0,1,.5.5A.5.5,0,0,1,106.41,155.62Zm-5.85,0H97.63a.5.5,0,0,1-.5-.5.5.5,0,0,1,.5-.5h2.93a.51.51,0,0,1,.5.5A.5.5,0,0,1,100.56,155.62Zm-5.86,0H91.78a.5.5,0,0,1-.5-.5.5.5,0,0,1,.5-.5H94.7a.5.5,0,0,1,.5.5A.5.5,0,0,1,94.7,155.62Zm-5.85,0H85.92a.5.5,0,0,1-.5-.5.51.51,0,0,1,.5-.5h2.93a.5.5,0,0,1,.5.5A.5.5,0,0,1,88.85,155.62Zm-5.85,0H80.07a.5.5,0,0,1-.5-.5.5.5,0,0,1,.5-.5H83a.51.51,0,0,1,.5.5A.5.5,0,0,1,83,155.62Zm-5.86,0H74.21a.5.5,0,0,1-.5-.5.51.51,0,0,1,.5-.5h2.93a.5.5,0,0,1,.5.5A.5.5,0,0,1,77.14,155.62Z" fill="#d1d3d4"></path><path d="M330.22,155.12V238a11.36,11.36,0,0,1-11.36,11.35H207.19V155.12Z" fill="#fff"></path><path d="M330.22,157.12a.5.5,0,0,1-.5-.5v-1h-1a.5.5,0,0,1-.5-.5.5.5,0,0,1,.5-.5h1.5a.5.5,0,0,1,.5.5v1.5A.5.5,0,0,1,330.22,157.12Z" fill="#d1d3d4"></path><path d="M317.93,249.83h-3a.51.51,0,0,1-.5-.5.5.5,0,0,1,.5-.5h3a.5.5,0,0,1,.5.5A.5.5,0,0,1,317.93,249.83Zm-6.07,0h-3a.5.5,0,0,1-.5-.5.5.5,0,0,1,.5-.5h3a.5.5,0,0,1,.5.5A.5.5,0,0,1,311.86,249.83Zm-6.07,0h-3a.5.5,0,0,1-.5-.5.5.5,0,0,1,.5-.5h3a.5.5,0,0,1,.5.5A.5.5,0,0,1,305.79,249.83Zm-6.07,0h-3a.5.5,0,0,1-.5-.5.5.5,0,0,1,.5-.5h3a.5.5,0,0,1,.5.5A.5.5,0,0,1,299.72,249.83Zm-6.06,0h-3a.5.5,0,0,1-.5-.5.5.5,0,0,1,.5-.5h3a.5.5,0,0,1,.5.5A.51.51,0,0,1,293.66,249.83Zm-6.07,0h-3a.51.51,0,0,1-.5-.5.5.5,0,0,1,.5-.5h3a.5.5,0,0,1,.5.5A.51.51,0,0,1,287.59,249.83Zm-6.07,0h-3a.5.5,0,0,1-.5-.5.5.5,0,0,1,.5-.5h3a.5.5,0,0,1,.5.5A.5.5,0,0,1,281.52,249.83Zm-6.07,0h-3a.5.5,0,0,1-.5-.5.5.5,0,0,1,.5-.5h3a.5.5,0,0,1,.5.5A.5.5,0,0,1,275.45,249.83Zm-6.07,0h-3a.5.5,0,0,1-.5-.5.5.5,0,0,1,.5-.5h3a.5.5,0,0,1,.5.5A.5.5,0,0,1,269.38,249.83Zm-6.07,0h-3a.5.5,0,0,1-.5-.5.5.5,0,0,1,.5-.5h3a.5.5,0,0,1,.5.5A.5.5,0,0,1,263.31,249.83Zm-6.06,0h-3a.51.51,0,0,1-.5-.5.5.5,0,0,1,.5-.5h3a.5.5,0,0,1,.5.5A.51.51,0,0,1,257.25,249.83Zm-6.07,0h-3a.51.51,0,0,1-.5-.5.5.5,0,0,1,.5-.5h3a.5.5,0,0,1,.5.5A.51.51,0,0,1,251.18,249.83Zm-6.07,0h-3a.5.5,0,0,1-.5-.5.5.5,0,0,1,.5-.5h3a.5.5,0,0,1,.5.5A.5.5,0,0,1,245.11,249.83Zm-6.07,0h-3a.5.5,0,0,1-.5-.5.5.5,0,0,1,.5-.5h3a.5.5,0,0,1,.5.5A.5.5,0,0,1,239,249.83Zm-6.07,0h-3a.5.5,0,0,1-.5-.5.5.5,0,0,1,.5-.5h3a.5.5,0,0,1,.5.5A.5.5,0,0,1,233,249.83Zm-6.07,0h-3a.5.5,0,0,1-.5-.5.5.5,0,0,1,.5-.5h3a.5.5,0,0,1,.5.5A.5.5,0,0,1,226.9,249.83Zm-6.06,0h-3a.51.51,0,0,1-.5-.5.5.5,0,0,1,.5-.5h3a.5.5,0,0,1,.5.5A.51.51,0,0,1,220.84,249.83Zm-6.07,0h-3a.51.51,0,0,1-.5-.5.5.5,0,0,1,.5-.5h3a.5.5,0,0,1,.5.5A.51.51,0,0,1,214.77,249.83ZM321,249.64a.49.49,0,0,1-.49-.41.51.51,0,0,1,.4-.59,10.61,10.61,0,0,0,2.74-.9.5.5,0,1,1,.44.9,12.14,12.14,0,0,1-3,1Zm5.39-2.62a.48.48,0,0,1-.37-.17.5.5,0,0,1,0-.71,11,11,0,0,0,1.91-2.18.5.5,0,0,1,.69-.14.51.51,0,0,1,.14.7,11.46,11.46,0,0,1-2.08,2.37A.46.46,0,0,1,326.34,247Zm3.32-5a.41.41,0,0,1-.16,0,.49.49,0,0,1-.32-.63,10.88,10.88,0,0,0,.53-2.84.5.5,0,0,1,1,0,12.2,12.2,0,0,1-.58,3.11A.49.49,0,0,1,329.66,242Zm.56-6a.5.5,0,0,1-.5-.5v-3a.5.5,0,0,1,1,0v3A.5.5,0,0,1,330.22,236Zm0-6.07a.5.5,0,0,1-.5-.5v-3a.5.5,0,1,1,1,0v3A.5.5,0,0,1,330.22,229.94Zm0-6.06a.5.5,0,0,1-.5-.5v-3a.5.5,0,0,1,1,0v3A.5.5,0,0,1,330.22,223.88Zm0-6.07a.5.5,0,0,1-.5-.5v-3a.5.5,0,1,1,1,0v3A.5.5,0,0,1,330.22,217.81Zm0-6.07a.5.5,0,0,1-.5-.5v-3a.5.5,0,0,1,1,0v3A.5.5,0,0,1,330.22,211.74Zm0-6.07a.5.5,0,0,1-.5-.5v-3a.5.5,0,0,1,1,0v3A.5.5,0,0,1,330.22,205.67Zm0-6.07a.5.5,0,0,1-.5-.5v-3a.5.5,0,1,1,1,0v3A.5.5,0,0,1,330.22,199.6Zm0-6.07a.5.5,0,0,1-.5-.5v-3a.5.5,0,0,1,1,0v3A.5.5,0,0,1,330.22,193.53Zm0-6.06a.5.5,0,0,1-.5-.5v-3a.5.5,0,0,1,1,0v3A.5.5,0,0,1,330.22,187.47Zm0-6.07a.5.5,0,0,1-.5-.5v-3a.5.5,0,0,1,1,0v3A.5.5,0,0,1,330.22,181.4Zm0-6.07a.5.5,0,0,1-.5-.5v-3a.5.5,0,0,1,1,0v3A.5.5,0,0,1,330.22,175.33Zm0-6.07a.5.5,0,0,1-.5-.5v-3a.5.5,0,0,1,1,0v3A.5.5,0,0,1,330.22,169.26Zm0-6.07a.5.5,0,0,1-.5-.5v-3a.5.5,0,1,1,1,0v3A.5.5,0,0,1,330.22,163.19Z" fill="#d1d3d4"></path><path d="M208.69,249.83h-1.5a.5.5,0,0,1-.5-.5v-1.5a.5.5,0,0,1,.5-.5.5.5,0,0,1,.5.5v1h1a.5.5,0,0,1,.5.5A.51.51,0,0,1,208.69,249.83Z" fill="#d1d3d4"></path><path d="M207.19,245.39a.5.5,0,0,1-.5-.5v-2.95a.5.5,0,0,1,.5-.5.51.51,0,0,1,.5.5v2.95A.51.51,0,0,1,207.19,245.39Zm0-5.89a.5.5,0,0,1-.5-.5v-2.94a.5.5,0,0,1,.5-.5.5.5,0,0,1,.5.5V239A.5.5,0,0,1,207.19,239.5Zm0-5.88a.5.5,0,0,1-.5-.5v-2.94a.5.5,0,0,1,.5-.5.5.5,0,0,1,.5.5v2.94A.51.51,0,0,1,207.19,233.62Zm0-5.89a.5.5,0,0,1-.5-.5v-2.94a.5.5,0,0,1,.5-.5.51.51,0,0,1,.5.5v2.94A.5.5,0,0,1,207.19,227.73Zm0-5.88a.5.5,0,0,1-.5-.5v-2.94a.5.5,0,0,1,.5-.5.5.5,0,0,1,.5.5v2.94A.5.5,0,0,1,207.19,221.85Zm0-5.88a.5.5,0,0,1-.5-.5v-2.95a.5.5,0,0,1,.5-.5.51.51,0,0,1,.5.5v2.95A.51.51,0,0,1,207.19,216Zm0-5.89a.5.5,0,0,1-.5-.5v-2.94a.5.5,0,0,1,.5-.5.5.5,0,0,1,.5.5v2.94A.5.5,0,0,1,207.19,210.08Zm0-5.88a.5.5,0,0,1-.5-.5v-2.94a.5.5,0,0,1,.5-.5.5.5,0,0,1,.5.5v2.94A.51.51,0,0,1,207.19,204.2Zm0-5.89a.5.5,0,0,1-.5-.5v-2.94a.5.5,0,0,1,.5-.5.51.51,0,0,1,.5.5v2.94A.5.5,0,0,1,207.19,198.31Zm0-5.88a.5.5,0,0,1-.5-.5V189a.5.5,0,0,1,.5-.5.5.5,0,0,1,.5.5v2.94A.5.5,0,0,1,207.19,192.43Zm0-5.88a.5.5,0,0,1-.5-.5v-3a.5.5,0,0,1,.5-.5.51.51,0,0,1,.5.5v3A.51.51,0,0,1,207.19,186.55Zm0-5.89a.5.5,0,0,1-.5-.5v-2.94a.5.5,0,0,1,.5-.5.5.5,0,0,1,.5.5v2.94A.5.5,0,0,1,207.19,180.66Zm0-5.88a.5.5,0,0,1-.5-.5v-2.94a.5.5,0,0,1,.5-.5.5.5,0,0,1,.5.5v2.94A.51.51,0,0,1,207.19,174.78Zm0-5.89a.5.5,0,0,1-.5-.5v-2.94a.5.5,0,0,1,.5-.5.5.5,0,0,1,.5.5v2.94A.5.5,0,0,1,207.19,168.89Zm0-5.88a.5.5,0,0,1-.5-.5v-2.94a.5.5,0,0,1,.5-.5.5.5,0,0,1,.5.5v2.94A.5.5,0,0,1,207.19,163Z" fill="#d1d3d4"></path><path d="M207.19,157.12a.5.5,0,0,1-.5-.5v-1.5a.5.5,0,0,1,.5-.5h1.5a.51.51,0,0,1,.5.5.5.5,0,0,1-.5.5h-1v1A.5.5,0,0,1,207.19,157.12Z" fill="#d1d3d4"></path><path d="M325.79,155.62h-2.93a.5.5,0,0,1-.5-.5.51.51,0,0,1,.5-.5h2.93a.5.5,0,0,1,.5.5A.5.5,0,0,1,325.79,155.62Zm-5.85,0H317a.5.5,0,0,1-.5-.5.5.5,0,0,1,.5-.5h2.93a.51.51,0,0,1,.5.5A.5.5,0,0,1,319.94,155.62Zm-5.86,0h-2.93a.5.5,0,0,1-.5-.5.51.51,0,0,1,.5-.5h2.93a.5.5,0,0,1,.5.5A.5.5,0,0,1,314.08,155.62Zm-5.85,0H305.3a.5.5,0,0,1-.5-.5.5.5,0,0,1,.5-.5h2.93a.51.51,0,0,1,.5.5A.5.5,0,0,1,308.23,155.62Zm-5.86,0h-2.93a.5.5,0,0,1-.5-.5.51.51,0,0,1,.5-.5h2.93a.5.5,0,0,1,.5.5A.5.5,0,0,1,302.37,155.62Zm-5.85,0h-2.93a.5.5,0,0,1-.5-.5.5.5,0,0,1,.5-.5h2.93a.51.51,0,0,1,.5.5A.5.5,0,0,1,296.52,155.62Zm-5.86,0h-2.93a.5.5,0,0,1-.5-.5.51.51,0,0,1,.5-.5h2.93a.5.5,0,0,1,.5.5A.5.5,0,0,1,290.66,155.62Zm-5.85,0h-2.93a.5.5,0,0,1-.5-.5.5.5,0,0,1,.5-.5h2.93a.51.51,0,0,1,.5.5A.5.5,0,0,1,284.81,155.62Zm-5.86,0H276a.5.5,0,0,1-.5-.5.51.51,0,0,1,.5-.5H279a.5.5,0,0,1,.5.5A.5.5,0,0,1,279,155.62Zm-5.86,0h-2.92a.5.5,0,0,1-.5-.5.5.5,0,0,1,.5-.5h2.92a.5.5,0,0,1,.5.5A.5.5,0,0,1,273.09,155.62Zm-5.85,0h-2.93a.5.5,0,0,1-.5-.5.51.51,0,0,1,.5-.5h2.93a.5.5,0,0,1,.5.5A.5.5,0,0,1,267.24,155.62Zm-5.86,0h-2.92a.5.5,0,0,1-.5-.5.5.5,0,0,1,.5-.5h2.92a.5.5,0,0,1,.5.5A.5.5,0,0,1,261.38,155.62Zm-5.85,0H252.6a.5.5,0,0,1-.5-.5.51.51,0,0,1,.5-.5h2.93a.5.5,0,0,1,.5.5A.5.5,0,0,1,255.53,155.62Zm-5.86,0h-2.92a.5.5,0,0,1-.5-.5.5.5,0,0,1,.5-.5h2.92a.5.5,0,0,1,.5.5A.5.5,0,0,1,249.67,155.62Zm-5.85,0h-2.93a.5.5,0,0,1-.5-.5.51.51,0,0,1,.5-.5h2.93a.51.51,0,0,1,.5.5A.5.5,0,0,1,243.82,155.62Zm-5.86,0H235a.5.5,0,0,1-.5-.5.5.5,0,0,1,.5-.5H238a.5.5,0,0,1,.5.5A.5.5,0,0,1,238,155.62Zm-5.85,0h-2.93a.5.5,0,0,1-.5-.5.5.5,0,0,1,.5-.5h2.93a.51.51,0,0,1,.5.5A.5.5,0,0,1,232.11,155.62Zm-5.86,0h-2.92a.5.5,0,0,1-.5-.5.5.5,0,0,1,.5-.5h2.92a.5.5,0,0,1,.5.5A.5.5,0,0,1,226.25,155.62Zm-5.85,0h-2.93a.5.5,0,0,1-.5-.5.5.5,0,0,1,.5-.5h2.93a.51.51,0,0,1,.5.5A.5.5,0,0,1,220.4,155.62Zm-5.86,0h-2.92a.5.5,0,0,1-.5-.5.5.5,0,0,1,.5-.5h2.92a.5.5,0,0,1,.5.5A.5.5,0,0,1,214.54,155.62Z" fill="#d1d3d4"></path><path d="M188,210.52,73.28,206.83v-5.38a4.93,4.93,0,0,1,4.93-4.92H183a4.92,4.92,0,0,1,4.92,4.92Z" fill="#210A54"></path><path d="M188,178.45,73.28,174.76v-6.2a4.11,4.11,0,0,1,4.11-4.1H183.85a4.11,4.11,0,0,1,4.1,4.1Z" fill="#d1d3d4"></path><path d="M188,190.11,73.28,191.47v-4.4a2.86,2.86,0,0,1,2.79-2.86l108.94-3a2.87,2.87,0,0,1,2.94,2.87Z" fill="#231f20"></path><rect x="217.75" y="183.76" width="102.1" height="49.75" rx="7.4" fill="#fff"></rect><path d="M312.52,234h-3.11a.51.51,0,0,1-.5-.5.5.5,0,0,1,.5-.5h3a.53.53,0,0,1,.54.5A.47.47,0,0,1,312.52,234Zm-6.14,0h-3a.51.51,0,0,1-.5-.5.5.5,0,0,1,.5-.5h3a.5.5,0,0,1,.5.5A.5.5,0,0,1,306.38,234Zm-6.06,0h-3a.5.5,0,0,1-.5-.5.5.5,0,0,1,.5-.5h3a.5.5,0,0,1,.5.5A.5.5,0,0,1,300.32,234Zm-6.06,0h-3a.5.5,0,0,1-.5-.5.5.5,0,0,1,.5-.5h3a.5.5,0,0,1,.5.5A.5.5,0,0,1,294.26,234Zm-6.06,0h-3a.5.5,0,0,1-.5-.5.5.5,0,0,1,.5-.5h3a.5.5,0,0,1,.5.5A.51.51,0,0,1,288.2,234Zm-6.06,0h-3a.5.5,0,0,1-.5-.5.5.5,0,0,1,.5-.5h3a.5.5,0,0,1,.5.5A.51.51,0,0,1,282.14,234Zm-6.06,0h-3a.5.5,0,0,1-.5-.5.5.5,0,0,1,.5-.5h3a.5.5,0,0,1,.5.5A.51.51,0,0,1,276.08,234ZM270,234h-3a.51.51,0,0,1-.5-.5.5.5,0,0,1,.5-.5h3a.5.5,0,0,1,.5.5A.51.51,0,0,1,270,234ZM264,234h-3a.51.51,0,0,1-.5-.5.5.5,0,0,1,.5-.5h3a.5.5,0,0,1,.5.5A.5.5,0,0,1,264,234Zm-6.06,0h-3a.51.51,0,0,1-.5-.5.5.5,0,0,1,.5-.5h3a.5.5,0,0,1,.5.5A.5.5,0,0,1,257.89,234Zm-6.06,0h-3a.5.5,0,0,1-.5-.5.5.5,0,0,1,.5-.5h3a.5.5,0,0,1,.5.5A.5.5,0,0,1,251.83,234Zm-6.06,0h-3a.5.5,0,0,1-.5-.5.5.5,0,0,1,.5-.5h3a.5.5,0,0,1,.5.5A.5.5,0,0,1,245.77,234Zm-6.06,0h-3a.5.5,0,0,1-.5-.5.5.5,0,0,1,.5-.5h3a.5.5,0,0,1,.5.5A.5.5,0,0,1,239.71,234Zm-6.06,0h-3a.5.5,0,0,1-.5-.5.5.5,0,0,1,.5-.5h3a.5.5,0,0,1,.5.5A.51.51,0,0,1,233.65,234Zm-6.06,0h-2.43c-.22,0-.43,0-.64,0a.5.5,0,0,1-.46-.54.52.52,0,0,1,.54-.46,5.12,5.12,0,0,0,.56,0h2.43a.5.5,0,0,1,.5.5A.51.51,0,0,1,227.59,234Zm87.87-.64a.49.49,0,0,1-.46-.3.5.5,0,0,1,.25-.66,6.88,6.88,0,0,0,2.28-1.64.5.5,0,1,1,.74.68,7.92,7.92,0,0,1-2.61,1.87A.53.53,0,0,1,315.46,233.38Zm-93.79-.23a.53.53,0,0,1-.24-.06A8,8,0,0,1,219,231a.49.49,0,0,1,.08-.7.5.5,0,0,1,.7.08,7,7,0,0,0,2.16,1.8.5.5,0,0,1-.24.94ZM319.44,229a.45.45,0,0,1-.16,0,.5.5,0,0,1-.31-.64,6.87,6.87,0,0,0,.38-2.26v-.56a.5.5,0,0,1,.5-.5.51.51,0,0,1,.5.5v.56a7.83,7.83,0,0,1-.44,2.59A.49.49,0,0,1,319.44,229ZM218,228.53a.49.49,0,0,1-.48-.37,7.79,7.79,0,0,1-.27-2V225a.5.5,0,1,1,1,0v1.08a6.85,6.85,0,0,0,.24,1.8.5.5,0,0,1-.36.61ZM319.85,223a.5.5,0,0,1-.5-.5v-3a.5.5,0,0,1,.5-.5.51.51,0,0,1,.5.5v3A.5.5,0,0,1,319.85,223Zm-102.1-.52a.5.5,0,0,1-.5-.5v-3a.5.5,0,0,1,1,0v3A.5.5,0,0,1,217.75,222.5ZM319.85,217a.5.5,0,0,1-.5-.5v-3a.5.5,0,0,1,.5-.5.5.5,0,0,1,.5.5v3A.5.5,0,0,1,319.85,217Zm-102.1-.52a.5.5,0,0,1-.5-.5v-3a.5.5,0,1,1,1,0v3A.5.5,0,0,1,217.75,216.44Zm102.1-5.54a.5.5,0,0,1-.5-.5v-3a.5.5,0,0,1,.5-.5.5.5,0,0,1,.5.5v3A.5.5,0,0,1,319.85,210.9Zm-102.1-.53a.5.5,0,0,1-.5-.5v-3a.5.5,0,0,1,1,0v3A.5.5,0,0,1,217.75,210.37Zm102.1-5.53a.5.5,0,0,1-.5-.5v-3a.5.5,0,0,1,.5-.5.5.5,0,0,1,.5.5v3A.5.5,0,0,1,319.85,204.84Zm-102.1-.53a.5.5,0,0,1-.5-.5v-3a.5.5,0,1,1,1,0v3A.5.5,0,0,1,217.75,204.31Zm102.1-5.53a.5.5,0,0,1-.5-.5v-3a.5.5,0,0,1,.5-.5.5.5,0,0,1,.5.5v3A.51.51,0,0,1,319.85,198.78Zm-102.1-.53a.5.5,0,0,1-.5-.5v-3a.5.5,0,0,1,1,0v3A.5.5,0,0,1,217.75,198.25Zm102.1-5.53a.5.5,0,0,1-.5-.5v-1.05a6.62,6.62,0,0,0-.25-1.83.5.5,0,0,1,.36-.61.5.5,0,0,1,.61.35,8.1,8.1,0,0,1,.28,2.09v1.05A.51.51,0,0,1,319.85,192.72Zm-102.1-.53a.5.5,0,0,1-.5-.5v-.52a7.82,7.82,0,0,1,.45-2.63.49.49,0,0,1,.63-.3.49.49,0,0,1,.31.63,6.9,6.9,0,0,0-.39,2.3v.52A.5.5,0,0,1,217.75,192.19ZM318.22,187a.48.48,0,0,1-.39-.19,6.91,6.91,0,0,0-2.17-1.78.5.5,0,1,1,.47-.89,8,8,0,0,1,2.48,2.05.5.5,0,0,1-.08.7A.51.51,0,0,1,318.22,187Zm-98.49-.4a.47.47,0,0,1-.34-.13.5.5,0,0,1,0-.71,7.89,7.89,0,0,1,2.61-1.86.49.49,0,0,1,.66.26.48.48,0,0,1-.25.65,7,7,0,0,0-2.29,1.63A.48.48,0,0,1,219.73,186.63ZM313,184.28h0l-.53,0H310a.5.5,0,0,1-.5-.5.5.5,0,0,1,.5-.5h2.46a5.88,5.88,0,0,1,.6,0,.49.49,0,0,1,.46.53A.49.49,0,0,1,313,184.28Zm-6.06,0h-3a.5.5,0,0,1-.5-.5.51.51,0,0,1,.5-.5h3a.51.51,0,0,1,.5.5A.5.5,0,0,1,307,184.26Zm-6.07,0h-3a.5.5,0,0,1-.5-.5.51.51,0,0,1,.5-.5h3a.5.5,0,0,1,.5.5A.5.5,0,0,1,300.88,184.26Zm-6.06,0h-3a.5.5,0,0,1-.5-.5.51.51,0,0,1,.5-.5h3a.5.5,0,0,1,.5.5A.5.5,0,0,1,294.82,184.26Zm-6.06,0h-3a.5.5,0,0,1-.5-.5.5.5,0,0,1,.5-.5h3a.5.5,0,0,1,.5.5A.5.5,0,0,1,288.76,184.26Zm-6.06,0h-3a.5.5,0,0,1-.5-.5.5.5,0,0,1,.5-.5h3a.5.5,0,0,1,.5.5A.5.5,0,0,1,282.7,184.26Zm-6.06,0h-3a.5.5,0,0,1-.5-.5.5.5,0,0,1,.5-.5h3a.5.5,0,0,1,.5.5A.5.5,0,0,1,276.64,184.26Zm-6.06,0h-3a.5.5,0,0,1-.5-.5.5.5,0,0,1,.5-.5h3a.51.51,0,0,1,.5.5A.5.5,0,0,1,270.58,184.26Zm-6.06,0h-3a.5.5,0,0,1-.5-.5.5.5,0,0,1,.5-.5h3a.51.51,0,0,1,.5.5A.5.5,0,0,1,264.52,184.26Zm-6.06,0h-3a.5.5,0,0,1-.5-.5.51.51,0,0,1,.5-.5h3a.51.51,0,0,1,.5.5A.5.5,0,0,1,258.46,184.26Zm-6.07,0h-3a.5.5,0,0,1-.5-.5.51.51,0,0,1,.5-.5h3a.5.5,0,0,1,.5.5A.5.5,0,0,1,252.39,184.26Zm-6.06,0h-3a.5.5,0,0,1-.5-.5.51.51,0,0,1,.5-.5h3a.5.5,0,0,1,.5.5A.5.5,0,0,1,246.33,184.26Zm-6.06,0h-3a.5.5,0,0,1-.5-.5.5.5,0,0,1,.5-.5h3a.5.5,0,0,1,.5.5A.5.5,0,0,1,240.27,184.26Zm-6.06,0h-3a.5.5,0,0,1-.5-.5.5.5,0,0,1,.5-.5h3a.5.5,0,0,1,.5.5A.5.5,0,0,1,234.21,184.26Zm-6.06,0h-3a.51.51,0,0,1-.52-.5.48.48,0,0,1,.48-.5h3a.5.5,0,0,1,.5.5A.5.5,0,0,1,228.15,184.26Z" fill="#d1d3d4"></path><path d="M318.23,169.35h-2.57a.51.51,0,0,1-.5-.5.5.5,0,0,1,.5-.5h2.57a.5.5,0,0,1,.5.5A.5.5,0,0,1,318.23,169.35Zm-5.57,0h-3a.51.51,0,0,1-.5-.5.5.5,0,0,1,.5-.5h3a.5.5,0,0,1,.5.5A.5.5,0,0,1,312.66,169.35Zm-6,0h-3a.51.51,0,0,1-.5-.5.5.5,0,0,1,.5-.5h3a.5.5,0,0,1,.5.5A.5.5,0,0,1,306.66,169.35Zm-6,0h-3a.51.51,0,0,1-.5-.5.5.5,0,0,1,.5-.5h3a.5.5,0,0,1,.5.5A.5.5,0,0,1,300.66,169.35Zm-6,0h-3a.51.51,0,0,1-.5-.5.5.5,0,0,1,.5-.5h3a.5.5,0,0,1,.5.5A.5.5,0,0,1,294.66,169.35Zm-6,0h-3a.51.51,0,0,1-.5-.5.5.5,0,0,1,.5-.5h3a.5.5,0,0,1,.5.5A.5.5,0,0,1,288.66,169.35Zm-6,0h-3a.51.51,0,0,1-.5-.5.5.5,0,0,1,.5-.5h3a.5.5,0,0,1,.5.5A.5.5,0,0,1,282.66,169.35Zm-6,0h-3a.51.51,0,0,1-.5-.5.5.5,0,0,1,.5-.5h3a.5.5,0,0,1,.5.5A.5.5,0,0,1,276.66,169.35Zm-6,0h-3a.51.51,0,0,1-.5-.5.5.5,0,0,1,.5-.5h3a.5.5,0,0,1,.5.5A.5.5,0,0,1,270.66,169.35Zm-6,0h-3a.51.51,0,0,1-.5-.5.5.5,0,0,1,.5-.5h3a.5.5,0,0,1,.5.5A.5.5,0,0,1,264.66,169.35Zm-6,0h-3a.51.51,0,0,1-.5-.5.5.5,0,0,1,.5-.5h3a.5.5,0,0,1,.5.5A.5.5,0,0,1,258.66,169.35Zm-6,0h-3a.51.51,0,0,1-.5-.5.5.5,0,0,1,.5-.5h3a.5.5,0,0,1,.5.5A.5.5,0,0,1,252.66,169.35Zm-6,0h-3a.51.51,0,0,1-.5-.5.5.5,0,0,1,.5-.5h3a.5.5,0,0,1,.5.5A.5.5,0,0,1,246.66,169.35Zm-6,0h-3a.51.51,0,0,1-.5-.5.5.5,0,0,1,.5-.5h3a.5.5,0,0,1,.5.5A.5.5,0,0,1,240.66,169.35Zm-6,0h-3a.51.51,0,0,1-.5-.5.5.5,0,0,1,.5-.5h3a.5.5,0,0,1,.5.5A.5.5,0,0,1,234.66,169.35Zm-6,0h-3a.51.51,0,0,1-.5-.5.5.5,0,0,1,.5-.5h3a.5.5,0,0,1,.5.5A.5.5,0,0,1,228.66,169.35Zm-6,0h-3a.51.51,0,0,1-.5-.5.5.5,0,0,1,.5-.5h3a.5.5,0,0,1,.5.5A.5.5,0,0,1,222.66,169.35Z" fill="#d1d3d4"></path><path d="M191,211h0L71.54,207a.49.49,0,0,1-.48-.51.48.48,0,0,1,.51-.49l119.48,4a.49.49,0,0,1,.48.51A.51.51,0,0,1,191,211Z" fill="#231f20"></path><path d="M71.22,191.91a.5.5,0,1,1,0-1l120.14-1.66h0a.5.5,0,0,1,.5.5.49.49,0,0,1-.49.5L71.23,191.91Z" fill="#231f20"></path><path d="M191.16,179.05h0L71.41,174.57a.5.5,0,0,1-.48-.52.5.5,0,0,1,.52-.48l119.72,4.48a.51.51,0,0,1,.49.52A.5.5,0,0,1,191.16,179.05Z" fill="#231f20"></path><path d="M330.22,148.69H69.82a.5.5,0,0,1,0-1h260.4a.5.5,0,0,1,0,1Z" fill="#231f20"></path><path d="M143.17,103.55s-1.17-4.15-4-5.31-8.63-1.16-10.62,1.16-5.47,12.78-4.15,12.61,2.33-1.49,4.15-6.64c0,0-3.48,10-1,8.63s4-7.3,4-7.3-2.49,9.63-.33,8.46,4.31-10.28,4.31-10.28-3.81,10-1,8.63,3.48-10.13,4.15-10A41.33,41.33,0,0,0,143.17,103.55Z" fill="#fff"></path><path d="M130.89,115.72a.86.86,0,0,1-.51-.18c-.56-.44-.57-2-.35-3.67a6.28,6.28,0,0,1-2.25,2.54,1,1,0,0,1-1.16,0c-.5-.43-.45-1.7-.17-3.22a2.81,2.81,0,0,1-2,1.3.64.64,0,0,1-.67-.35c-.79-1.47,2.63-10.92,4.42-13,2.15-2.52,8.15-2.51,11.14-1.28s4.2,5.43,4.25,5.61a.46.46,0,0,1-.42.58c-.59,0-3.29.13-4.33,0a20.27,20.27,0,0,0-.51,2c-.62,2.76-1.57,6.94-3.62,7.91a1.06,1.06,0,0,1-1.28-.08,1,1,0,0,1-.28-.49,5.32,5.32,0,0,1-1.74,2.22A1.11,1.11,0,0,1,130.89,115.72Zm1.08-8.8c-1,3.79-1.44,7.34-1,7.88l.07,0c.7-.38,1.5-1.94,2.22-3.84a38.13,38.13,0,0,1,1.89-6.21.46.46,0,0,1,.56-.27.46.46,0,0,1,.31.54,55.57,55.57,0,0,1-1.88,6.22c-.21,1.07-.23,1.8,0,2h0a.58.58,0,0,0,.26-.08c1.65-.77,2.57-4.85,3.12-7.28.42-1.83.57-2.42.92-2.64a.68.68,0,0,1,.42-.06,31.16,31.16,0,0,0,3.74,0c-.42-1.13-1.54-3.64-3.53-4.46-2.69-1.11-8.28-1.08-10.1,1s-4.45,10.31-4.34,11.82c.94-.26,1.87-1.53,3.56-6.3h0a.46.46,0,0,1,.58-.28.47.47,0,0,1,.29.58c-1.37,3.89-2.17,7.58-1.79,8.15l.14-.07c1.84-1,3.26-5.13,3.72-6.85a.75.75,0,0,1,0-.16.45.45,0,0,1,.88.22S132,106.86,132,106.92Z" fill="#231f20"></path><path d="M250.69,105.42s1.17-4.15,4-5.31,8.63-1.17,10.62,1.16,5.47,12.77,4.15,12.61-2.33-1.49-4.15-6.64c0,0,3.48,10,1,8.63s-4-7.3-4-7.3,2.49,9.62.33,8.46-4.31-10.29-4.31-10.29,3.81,10,1,8.63-3.48-10.12-4.15-10A41.33,41.33,0,0,1,250.69,105.42Z" fill="#fff"></path><path d="M263,117.59a1.2,1.2,0,0,1-.55-.16,5.28,5.28,0,0,1-1.73-2.21,1,1,0,0,1-1.56.57c-2.05-1-3-5.15-3.62-7.92-.18-.76-.37-1.61-.51-2-1,.11-3.74,0-4.33,0a.45.45,0,0,1-.35-.19.48.48,0,0,1-.07-.39c.05-.18,1.26-4.37,4.25-5.61s9-1.23,11.14,1.29c1.79,2.09,5.21,11.54,4.42,13a.65.65,0,0,1-.67.35,2.81,2.81,0,0,1-2-1.3c.28,1.51.33,2.79-.17,3.22a1,1,0,0,1-1.16,0,6.39,6.39,0,0,1-2.25-2.53c.22,1.71.21,3.22-.35,3.67A.86.86,0,0,1,263,117.59Zm-2.33-4.8c.72,1.9,1.52,3.46,2.22,3.84a.25.25,0,0,0,.11,0c.38-.42-.09-4-1.08-7.88l0-.11a.45.45,0,0,1,.33-.55.44.44,0,0,1,.55.32,1,1,0,0,1,0,.17c.46,1.72,1.88,5.87,3.72,6.85a.46.46,0,0,0,.18.06h0c.37-.46-.44-4.2-1.82-8.14h0a.45.45,0,0,1,.28-.58.46.46,0,0,1,.58.28c1.69,4.77,2.62,6,3.56,6.29.12-1.5-2.51-9.68-4.34-11.82s-7.41-2.14-10.1-1c-2,.82-3.11,3.33-3.53,4.45a29.13,29.13,0,0,0,3.74,0,.61.61,0,0,1,.42.07c.35.22.5.81.92,2.63.55,2.44,1.47,6.51,3.12,7.29a.83.83,0,0,0,.28.08c.2-.17.17-.89,0-2a56.16,56.16,0,0,1-1.88-6.23.46.46,0,0,1,.31-.54.45.45,0,0,1,.56.27A38.13,38.13,0,0,1,260.64,112.79Z" fill="#231f20"></path><path d="M131.14,76.89a.5.5,0,0,1-.5-.5v-4.7a.5.5,0,0,1,.5-.5.5.5,0,0,1,.5.5v4.7A.5.5,0,0,1,131.14,76.89Z" fill="#d1d3d4"></path><path d="M131.14,84.8a.5.5,0,0,1-.5-.5V79.6a.5.5,0,0,1,.5-.5.5.5,0,0,1,.5.5v4.7A.5.5,0,0,1,131.14,84.8Z" fill="#d1d3d4"></path><path d="M137.45,78.49h-4.7a.5.5,0,0,1-.5-.5.5.5,0,0,1,.5-.5h4.7a.5.5,0,0,1,.5.5A.5.5,0,0,1,137.45,78.49Z" fill="#d1d3d4"></path><path d="M129.54,78.49h-4.7a.5.5,0,0,1-.5-.5.5.5,0,0,1,.5-.5h4.7a.5.5,0,0,1,.5.5A.5.5,0,0,1,129.54,78.49Z" fill="#d1d3d4"></path><path d="M286.77,81.19a.5.5,0,0,1-.5-.5V77a.5.5,0,0,1,1,0v3.65A.5.5,0,0,1,286.77,81.19Z" fill="#d1d3d4"></path><path d="M286.77,87.33a.5.5,0,0,1-.5-.5V83.18a.5.5,0,0,1,1,0v3.65A.5.5,0,0,1,286.77,87.33Z" fill="#d1d3d4"></path><path d="M291.66,82.44H288a.51.51,0,0,1-.5-.5.5.5,0,0,1,.5-.5h3.65a.5.5,0,0,1,.5.5A.5.5,0,0,1,291.66,82.44Z" fill="#d1d3d4"></path><path d="M285.52,82.44h-3.65a.51.51,0,0,1-.5-.5.5.5,0,0,1,.5-.5h3.65a.5.5,0,0,1,.5.5A.5.5,0,0,1,285.52,82.44Z" fill="#d1d3d4"></path><line x1="102.54" y1="66.9" x2="102.54" y2="69.57" fill="#fff"></line><path d="M102.54,70.07a.5.5,0,0,1-.5-.5V66.9a.5.5,0,0,1,.5-.5.51.51,0,0,1,.5.5v2.67A.5.5,0,0,1,102.54,70.07Z" fill="#d1d3d4"></path><line x1="102.54" y1="74.02" x2="102.54" y2="76.69" fill="#fff"></line><path d="M102.54,77.19a.5.5,0,0,1-.5-.5V74a.5.5,0,0,1,.5-.5.51.51,0,0,1,.5.5v2.67A.5.5,0,0,1,102.54,77.19Z" fill="#d1d3d4"></path><line x1="107.43" y1="71.8" x2="104.76" y2="71.8" fill="#fff"></line><path d="M107.43,72.3h-2.67a.5.5,0,0,1,0-1h2.67a.5.5,0,0,1,0,1Z" fill="#d1d3d4"></path><line x1="100.31" y1="71.8" x2="97.64" y2="71.8" fill="#fff"></line><path d="M100.31,72.3H97.64a.5.5,0,0,1,0-1h2.67a.5.5,0,0,1,0,1Z" fill="#d1d3d4"></path><line x1="250.78" y1="59.85" x2="250.78" y2="62.03" fill="#fff"></line><path d="M250.78,62.53a.51.51,0,0,1-.5-.5V59.85a.51.51,0,0,1,.5-.5.5.5,0,0,1,.5.5V62A.5.5,0,0,1,250.78,62.53Z" fill="#d1d3d4"></path><line x1="250.78" y1="65.65" x2="250.78" y2="67.82" fill="#fff"></line><path d="M250.78,68.32a.5.5,0,0,1-.5-.5V65.65a.5.5,0,0,1,.5-.5.5.5,0,0,1,.5.5v2.17A.5.5,0,0,1,250.78,68.32Z" fill="#d1d3d4"></path><line x1="254.77" y1="63.84" x2="252.6" y2="63.84" fill="#fff"></line><path d="M254.77,64.34H252.6a.5.5,0,0,1-.5-.5.5.5,0,0,1,.5-.5h2.17a.5.5,0,0,1,.5.5A.51.51,0,0,1,254.77,64.34Z" fill="#d1d3d4"></path><line x1="248.97" y1="63.84" x2="246.8" y2="63.84" fill="#fff"></line><path d="M249,64.34H246.8a.51.51,0,0,1-.5-.5.5.5,0,0,1,.5-.5H249a.5.5,0,0,1,.5.5A.5.5,0,0,1,249,64.34Z" fill="#d1d3d4"></path><path d="M276.75,188.29a34.74,34.74,0,0,0-8.86-5.77c-.27,9.47,3.58,18.18,7.13,24.15h11.56" fill="#fff"></path><path d="M286.58,207.17H275a.52.52,0,0,1-.43-.25c-3.43-5.77-7.47-14.69-7.2-24.42a.51.51,0,0,1,.23-.4.5.5,0,0,1,.46,0,35,35,0,0,1,9,5.87.48.48,0,0,1,0,.7.49.49,0,0,1-.7,0,35.22,35.22,0,0,0-8-5.38c-.05,9.06,3.68,17.37,6.93,22.88h11.27a.5.5,0,0,1,.5.5A.51.51,0,0,1,286.58,207.17Z" fill="#231f20"></path><path d="M293.31,190.84a55.2,55.2,0,0,0-12.06-24.76c-2.4,7.29-5.12,15.44-4.5,22.21a79.39,79.39,0,0,0,4,18.38h12.42" fill="#fff"></path><path d="M293.17,207.17H280.75a.51.51,0,0,1-.48-.34,80.15,80.15,0,0,1-4-18.49c-.61-6.78,2.06-14.91,4.42-22.08l.1-.33a.53.53,0,0,1,.37-.34.53.53,0,0,1,.48.15,56.31,56.31,0,0,1,12.18,25,.5.5,0,0,1-.4.59.51.51,0,0,1-.59-.4,55.5,55.5,0,0,0-11.36-23.85c-2.28,6.95-4.78,14.76-4.2,21.17a79.18,79.18,0,0,0,3.85,17.92h12.07a.5.5,0,0,1,.5.5A.5.5,0,0,1,293.17,207.17Z" fill="#231f20"></path><path d="M299.44,206.67h-11c-.11-3.26.63-8.19,4.17-14.59l.7-1.24c6.37-10.79,12.2-10.67,12.2-10.67C308,191.53,302.77,201.65,299.44,206.67Z" fill="#fff"></path><path d="M299.44,207.17h-11a.51.51,0,0,1-.5-.49c-.1-3.09.55-8.18,4.23-14.84.24-.44.47-.85.71-1.25,6.45-10.92,12.42-10.92,12.64-10.92a.48.48,0,0,1,.48.39c2.51,11.55-2.77,21.8-6.14,26.88A.5.5,0,0,1,299.44,207.17Zm-10.51-1h10.24c3.25-5,8.12-14.61,5.95-25.46-1.38.22-6.19,1.6-11.38,10.39-.23.39-.46.8-.7,1.22C289.66,198.44,288.92,203.16,288.93,206.17Z" fill="#231f20"></path><polygon points="297.44 224.12 275.86 224.12 272.38 206.67 300.92 206.67 297.44 224.12" fill="#231f20"></polygon><rect x="248.12" y="250.78" width="71.05" height="13.14" rx="2.45" fill="#fff"></rect><path d="M316.72,264.42H250.57a3,3,0,0,1-2.95-3v-8.23a3,3,0,0,1,2.95-2.95h66.15a3,3,0,0,1,2.95,2.95v8.23A3,3,0,0,1,316.72,264.42Zm-66.15-13.14a2,2,0,0,0-1.95,1.95v8.23a2,2,0,0,0,1.95,2h66.15a2,2,0,0,0,1.95-2v-8.23a2,2,0,0,0-1.95-1.95Z" fill="#231f20"></path><rect x="241.64" y="237.68" width="71.05" height="13.14" rx="2.45" fill="#fff"></rect><path d="M310.25,251.32H244.1a3,3,0,0,1-3-2.95v-8.23a3,3,0,0,1,3-3h66.15a3,3,0,0,1,2.95,3v8.23A3,3,0,0,1,310.25,251.32ZM244.1,238.18a2,2,0,0,0-2,2v8.23a2,2,0,0,0,2,1.95h66.15a2,2,0,0,0,1.95-1.95v-8.23a2,2,0,0,0-1.95-2Z" fill="#231f20"></path><rect x="252.63" y="224.5" width="71.05" height="13.14" rx="2.45" fill="#fff"></rect><path d="M321.23,238.14H255.08a3,3,0,0,1-3-2.95V227a3,3,0,0,1,3-2.95h66.15a3,3,0,0,1,2.95,2.95v8.24A3,3,0,0,1,321.23,238.14ZM255.08,225a2,2,0,0,0-2,1.95v8.24a2,2,0,0,0,2,1.95h66.15a2,2,0,0,0,1.95-1.95V227a2,2,0,0,0-1.95-1.95Z" fill="#231f20"></path><path d="M248,248.27a.5.5,0,0,1-.5-.5v-8.16a.5.5,0,0,1,1,0v8.16A.5.5,0,0,1,248,248.27Z" fill="#231f20"></path><path d="M254.51,248.27a.5.5,0,0,1-.5-.5v-8.16a.5.5,0,0,1,.5-.5.5.5,0,0,1,.5.5v8.16A.5.5,0,0,1,254.51,248.27Z" fill="#231f20"></path><path d="M261,248.27a.5.5,0,0,1-.5-.5v-8.16a.5.5,0,0,1,.5-.5.5.5,0,0,1,.5.5v8.16A.5.5,0,0,1,261,248.27Z" fill="#231f20"></path><path d="M267.46,248.27a.5.5,0,0,1-.5-.5v-8.16a.5.5,0,0,1,.5-.5.5.5,0,0,1,.5.5v8.16A.5.5,0,0,1,267.46,248.27Z" fill="#231f20"></path><path d="M273.93,248.27a.5.5,0,0,1-.5-.5v-8.16a.5.5,0,0,1,.5-.5.5.5,0,0,1,.5.5v8.16A.5.5,0,0,1,273.93,248.27Z" fill="#231f20"></path><path d="M280.41,248.27a.5.5,0,0,1-.5-.5v-8.16a.5.5,0,1,1,1,0v8.16A.5.5,0,0,1,280.41,248.27Z" fill="#231f20"></path><path d="M286.89,248.27a.5.5,0,0,1-.5-.5v-8.16a.5.5,0,0,1,.5-.5.5.5,0,0,1,.5.5v8.16A.5.5,0,0,1,286.89,248.27Z" fill="#231f20"></path><path d="M293.36,248.27a.5.5,0,0,1-.5-.5v-8.16a.5.5,0,0,1,1,0v8.16A.5.5,0,0,1,293.36,248.27Z" fill="#231f20"></path><path d="M299.84,248.27a.5.5,0,0,1-.5-.5v-8.16a.5.5,0,0,1,.5-.5.5.5,0,0,1,.5.5v8.16A.5.5,0,0,1,299.84,248.27Z" fill="#231f20"></path><path d="M306.31,248.27a.5.5,0,0,1-.5-.5v-8.16a.5.5,0,0,1,.5-.5.5.5,0,0,1,.5.5v8.16A.5.5,0,0,1,306.31,248.27Z" fill="#231f20"></path><path d="M259,235.65a.5.5,0,0,1-.5-.5V227a.5.5,0,0,1,1,0v8.17A.5.5,0,0,1,259,235.65Z" fill="#231f20"></path><path d="M265.49,235.65a.5.5,0,0,1-.5-.5V227a.5.5,0,0,1,.5-.5.51.51,0,0,1,.5.5v8.17A.5.5,0,0,1,265.49,235.65Z" fill="#231f20"></path><path d="M272,235.65a.5.5,0,0,1-.5-.5V227a.51.51,0,0,1,.5-.5.5.5,0,0,1,.5.5v8.17A.5.5,0,0,1,272,235.65Z" fill="#231f20"></path><path d="M278.44,235.65a.5.5,0,0,1-.5-.5V227a.5.5,0,0,1,.5-.5.51.51,0,0,1,.5.5v8.17A.5.5,0,0,1,278.44,235.65Z" fill="#231f20"></path><path d="M284.92,235.65a.5.5,0,0,1-.5-.5V227a.5.5,0,0,1,.5-.5.51.51,0,0,1,.5.5v8.17A.5.5,0,0,1,284.92,235.65Z" fill="#231f20"></path><path d="M291.39,235.65a.5.5,0,0,1-.5-.5V227a.5.5,0,0,1,1,0v8.17A.5.5,0,0,1,291.39,235.65Z" fill="#231f20"></path><path d="M297.87,235.65a.5.5,0,0,1-.5-.5V227a.5.5,0,0,1,.5-.5.51.51,0,0,1,.5.5v8.17A.5.5,0,0,1,297.87,235.65Z" fill="#231f20"></path><path d="M304.34,235.65a.5.5,0,0,1-.5-.5V227a.51.51,0,0,1,.5-.5.5.5,0,0,1,.5.5v8.17A.5.5,0,0,1,304.34,235.65Z" fill="#231f20"></path><path d="M310.82,235.65a.5.5,0,0,1-.5-.5V227a.5.5,0,0,1,.5-.5.51.51,0,0,1,.5.5v8.17A.5.5,0,0,1,310.82,235.65Z" fill="#231f20"></path><path d="M317.29,235.65a.5.5,0,0,1-.5-.5V227a.51.51,0,0,1,.5-.5.5.5,0,0,1,.5.5v8.17A.5.5,0,0,1,317.29,235.65Z" fill="#231f20"></path><path d="M254.51,261.93a.5.5,0,0,1-.5-.5v-8.17a.5.5,0,0,1,.5-.5.51.51,0,0,1,.5.5v8.17A.5.5,0,0,1,254.51,261.93Z" fill="#231f20"></path><path d="M261,261.93a.5.5,0,0,1-.5-.5v-8.17a.51.51,0,0,1,.5-.5.5.5,0,0,1,.5.5v8.17A.5.5,0,0,1,261,261.93Z" fill="#231f20"></path><path d="M267.46,261.93a.5.5,0,0,1-.5-.5v-8.17a.5.5,0,0,1,.5-.5.51.51,0,0,1,.5.5v8.17A.5.5,0,0,1,267.46,261.93Z" fill="#231f20"></path><path d="M273.93,261.93a.5.5,0,0,1-.5-.5v-8.17a.51.51,0,0,1,.5-.5.5.5,0,0,1,.5.5v8.17A.5.5,0,0,1,273.93,261.93Z" fill="#231f20"></path><path d="M280.41,261.93a.5.5,0,0,1-.5-.5v-8.17a.5.5,0,0,1,1,0v8.17A.5.5,0,0,1,280.41,261.93Z" fill="#231f20"></path><path d="M286.89,261.93a.5.5,0,0,1-.5-.5v-8.17a.5.5,0,0,1,.5-.5.51.51,0,0,1,.5.5v8.17A.5.5,0,0,1,286.89,261.93Z" fill="#231f20"></path><path d="M293.36,261.93a.5.5,0,0,1-.5-.5v-8.17a.5.5,0,0,1,1,0v8.17A.5.5,0,0,1,293.36,261.93Z" fill="#231f20"></path><path d="M299.84,261.93a.5.5,0,0,1-.5-.5v-8.17a.5.5,0,0,1,.5-.5.51.51,0,0,1,.5.5v8.17A.5.5,0,0,1,299.84,261.93Z" fill="#231f20"></path><path d="M306.31,261.93a.5.5,0,0,1-.5-.5v-8.17a.51.51,0,0,1,.5-.5.5.5,0,0,1,.5.5v8.17A.5.5,0,0,1,306.31,261.93Z" fill="#231f20"></path><path d="M312.79,261.93a.5.5,0,0,1-.5-.5v-8.17a.5.5,0,1,1,1,0v8.17A.5.5,0,0,1,312.79,261.93Z" fill="#231f20"></path></g></svg>